<svg version="1.1" xmlns="http://www.w3.org/2000/svg" xmlns:xlink="http://www.w3.org/1999/xlink" width="170" height="60" viewBox="619.49416,141.60513,170,60"><g fill="none" fill-rule="nonzero" stroke="none" stroke-width="1" stroke-linecap="butt" stroke-linejoin="miter" stroke-miterlimit="10" stroke-dasharray="" stroke-dashoffset="0" font-family="none" font-weight="none" font-size="none" text-anchor="none" style="mix-blend-mode: normal"><path d="M619.49416,141.60513c56.1,0 112.2,0 170,0c0,19.8 0,39.6 0,60c-56.1,0 -112.2,0 -170,0c0,-19.8 0,-39.6 0,-60z" id="Path 1" fill="#f9d4cd"/><path d="M745.48481,176.53664c4.24682,0 8.49365,0 12.86916,0c-0.31776,1.78082 -0.31776,1.78082 -0.63551,2.87671c2.93607,0 5.87215,0 8.8972,0c-0.31458,-1.08493 -0.31458,-1.08493 -0.63551,-2.19178c0,-0.22603 0,-0.45205 0,-0.68493c4.0371,0 8.07421,0 12.23365,0c-0.18257,0.47224 -0.35818,0.9147 -0.57593,1.36986c-0.20893,0.47071 -0.26262,0.86213 -0.21846,1.36986c0.49862,0.04216 0.7298,0.0381 1.15001,-0.20976c0.10875,-0.089 0.2175,-0.178 0.32955,-0.26969c0.1108,-0.089 0.2216,-0.178 0.33575,-0.26969c0.08254,-0.06922 0.16507,-0.13844 0.25011,-0.20976c0.30302,0.3919 0.40081,0.62125 0.5238,1.06914c0.05559,0.19819 0.05559,0.19819 0.11229,0.40039c0.03913,0.14228 0.07826,0.28456 0.11858,0.43116c0.3028,1.07446 0.62116,2.14127 0.98306,3.20205c0.3816,1.12337 0.71839,2.25377 1.04264,3.39041c0.35353,1.23923 0.73001,2.46822 1.14737,3.69251c0.40682,1.20718 0.75355,2.42694 1.09927,3.64803c0.04424,0.15557 0.08848,0.31114 0.13405,0.47143c0.03886,0.13808 0.07772,0.27616 0.11776,0.41842c0.11819,0.40658 0.11819,0.40658 0.29697,0.81904c0.14383,0.40263 0.14383,0.40263 0.14383,1.08756c-4.5614,0 -9.1228,0 -13.82243,0c-1.12409,-4.03833 -1.12409,-4.03833 -1.50035,-5.52577c-0.07131,-0.28125 -0.1438,-0.56226 -0.21629,-0.84329c-0.04641,-0.18237 -0.09275,-0.36475 -0.13902,-0.54714c-0.06079,-0.23847 -0.06079,-0.23847 -0.12281,-0.48176c-0.08696,-0.41026 -0.08696,-0.41026 -0.08696,-0.9582c-4.66626,0 -9.33252,0 -14.14019,0c-0.05243,0.31644 -0.10486,0.63288 -0.15888,0.9589c-0.08636,0.35481 -0.17598,0.70759 -0.27121,1.06057c-0.02648,0.09954 -0.05296,0.19908 -0.08024,0.30163c-0.08433,0.31656 -0.1693,0.633 -0.25427,0.94944c-0.05517,0.2069 -0.1103,0.4138 -0.1654,0.62072c-0.13749,0.51571 -0.27599,1.03122 -0.41497,1.54663c-0.08794,0.32668 -0.1753,0.65347 -0.26267,0.98026c-0.0572,0.21258 -0.11442,0.42515 -0.17168,0.63771c-0.0264,0.09917 -0.05281,0.19835 -0.08001,0.30052c-0.18798,0.69458 -0.18798,0.69458 -0.36497,0.99978c-4.45654,0 -8.91308,0 -13.50467,0c0.09936,-0.68532 0.1932,-1.28345 0.38416,-1.94082c0.04475,-0.15469 0.0895,-0.30938 0.13561,-0.46875c0.04803,-0.16263 0.09605,-0.32527 0.14554,-0.49283c0.04987,-0.17058 0.09974,-0.34116 0.15112,-0.51691c0.32552,-1.10338 0.67533,-2.19863 1.0471,-3.29098c0.33648,-0.99887 0.62873,-2.00578 0.91685,-3.01574c0.32102,-1.12526 0.65415,-2.24424 1.03271,-3.35616c0.43665,-1.28339 0.81608,-2.57723 1.186,-3.87602c0.32943,-1.15565 0.68244,-2.30216 1.0383,-3.45275z" id="Path 1" fill="#fefefe"/><path d="M754.85864,146.53664c4.92841,0 9.85682,0 14.93458,0c0.26126,0.56314 0.4552,1.09019 0.63365,1.67434c0.02915,0.09504 0.05831,0.19009 0.08834,0.28801c0.09416,0.30753 0.18756,0.61522 0.28093,0.92293c0.06477,0.21213 0.12956,0.42425 0.19437,0.63637c0.37414,1.22703 0.73872,2.45581 1.0902,3.68783c0.22057,0.76892 0.46965,1.52885 0.72748,2.28914c0.19486,0.60086 0.36776,1.20539 0.53994,1.81132c0.26756,0.93986 0.55879,1.87083 0.87383,2.79966c0.39693,1.17527 0.75639,2.35733 1.10222,3.54452c0.048,0.16369 0.096,0.32739 0.14546,0.49604c0.04478,0.15522 0.08955,0.31043 0.13568,0.47036c0.03969,0.13736 0.07939,0.27472 0.12028,0.41624c0.1147,0.45365 0.18772,0.91457 0.26388,1.37421c-2.88365,0 -5.76729,0 -8.73832,0c0.243,-0.62854 0.50305,-1.1737 0.84094,-1.76049c0.13004,-0.34071 0.09074,-0.50902 -0.04655,-0.84225c-0.29863,-0.00257 -0.29863,-0.00257 -0.63551,0.13699c-0.24665,0.31017 -0.45288,0.60296 -0.65537,0.93322c-0.05509,0.08626 -0.11018,0.17252 -0.16695,0.2614c-0.26641,0.41936 -0.51844,0.84344 -0.76646,1.27114c-0.68159,0 -1.36318,0 -2.06542,0c-0.35612,-1.45541 -0.63955,-2.91148 -0.88376,-4.38356c-0.03336,-0.19764 -0.06677,-0.39527 -0.10023,-0.59289c-0.21283,-1.2623 -0.41249,-2.52592 -0.60479,-3.79067c-0.02634,0.1496 -0.02634,0.1496 -0.05322,0.30222c-0.16577,0.94124 -0.33172,1.88246 -0.49786,2.82365c-0.08541,0.48384 -0.17074,0.96769 -0.25592,1.45156c-0.09799,0.55666 -0.19629,1.11327 -0.2946,1.66989c-0.03046,0.17325 -0.06091,0.34651 -0.0923,0.52501c-0.02862,0.16176 -0.05723,0.32352 -0.08671,0.49018c-0.02505,0.14206 -0.0501,0.28412 -0.07591,0.43048c-0.06779,0.35949 -0.14943,0.71699 -0.23227,1.07413c-3.93224,0 -7.86449,0 -11.91589,0c0.10871,-0.84355 0.2371,-1.58423 0.4965,-2.3887c0.03442,-0.10979 0.06884,-0.21958 0.1043,-0.3327c0.07575,-0.24137 0.15197,-0.48263 0.22858,-0.72379c0.22585,-0.71175 0.44754,-1.42447 0.67004,-2.137c0.04744,-0.1515 0.09488,-0.303 0.14375,-0.45908c0.34543,-1.10453 0.68219,-2.21086 1.01526,-3.31821c0.34041,-1.12909 0.69287,-2.25525 1.0466,-3.38128c0.34338,-1.09636 0.67422,-2.19525 1.00176,-3.2952c1.11083,-3.72204 1.11083,-3.72204 1.48949,-4.375z" id="Path 1" fill="#fefefe"/><path d="M638.24182,176.53664c4.92841,0 9.85682,0 14.93458,0c0.78645,1.49178 1.5729,2.98356 2.38318,4.52055c0.37319,0.70263 0.74644,1.40523 1.12051,2.10751c0.95546,1.79467 1.89219,3.59588 2.81689,5.40248c1.03758,2.02536 2.1169,4.03352 3.20736,6.03808c0.06276,0.11583 0.12553,0.23166 0.1902,0.351c0.11768,0.21716 0.23582,0.43415 0.3545,0.65091c0.24282,0.44871 0.43233,0.85797 0.57223,1.34044c-4.82355,0 -9.6471,0 -14.61682,0c-1.46388,-2.52434 -1.46388,-2.52434 -1.95929,-3.42894c-0.05692,-0.10348 -0.11384,-0.20696 -0.17249,-0.31358c-0.18011,-0.32771 -0.35978,-0.65559 -0.53936,-0.98351c-0.06251,-0.11398 -0.12502,-0.22796 -0.18943,-0.34539c-1.17451,-2.14183 -2.32519,-4.29233 -3.45722,-6.4511c-0.2115,-0.40318 -0.4233,-0.80624 -0.6351,-1.2093c-0.15129,-0.28829 -0.30205,-0.57679 -0.45276,-0.86532c-0.54339,-1.03695 -1.11123,-2.0585 -1.70651,-3.0742c-0.39371,-0.68003 -0.76172,-1.36935 -1.12557,-2.06155c-0.07076,-0.13279 -0.14152,-0.26558 -0.21442,-0.4024c-0.1,-0.18965 -0.1,-0.18965 -0.20201,-0.38313c-0.05948,-0.11262 -0.11897,-0.22523 -0.18025,-0.34126c-0.1282,-0.27732 -0.1282,-0.27732 -0.1282,-0.55129z" id="Path 1" fill="#fefefe"/><path d="M711.48481,176.53664c4.61383,0 9.22766,0 13.98131,0c-0.31776,0.82192 -0.31776,0.82192 -0.57593,1.29281c-0.23258,0.51956 -0.25762,0.89536 -0.21846,1.44692c0.37338,0.04512 0.37338,0.04512 0.79439,0c0.31238,-0.23153 0.31238,-0.23153 0.566,-0.53938c0.36753,-0.41495 0.56972,-0.62076 1.18166,-0.69349c0.8099,1.33226 1.51814,2.69669 2.21538,4.07508c0.39963,0.7894 0.80324,1.57605 1.2303,2.35472c0.39945,0.7291 0.78408,1.46276 1.1618,2.20034c0.38792,0.75737 0.78245,1.51125 1.19159,2.26027c0.40914,0.74902 0.80364,1.50292 1.19159,2.26027c0.66411,1.29567 1.35414,2.58011 2.06418,3.85756c0.0517,0.09373 0.1034,0.18747 0.15667,0.28404c0.09927,0.17992 0.19928,0.35953 0.30015,0.53878c0.21234,0.38595 0.33882,0.63987 0.33882,1.07305c-4.82355,0 -9.6471,0 -14.61682,0c-2.73535,-5.01168 -2.73535,-5.01168 -4.08554,-7.52462c-0.52296,-0.97203 -1.05098,-1.94198 -1.57936,-2.91183c-0.81287,-1.49209 -1.61991,-2.98615 -2.41305,-4.48613c-0.41633,-0.78623 -0.83739,-1.57044 -1.26238,-2.35321c-0.05141,-0.09473 -0.10283,-0.18947 -0.1558,-0.28707c-0.25442,-0.4686 -0.50926,-0.93703 -0.76461,-1.40526c-0.09226,-0.16969 -0.18451,-0.33939 -0.27676,-0.50908c-0.08206,-0.15053 -0.16413,-0.30105 -0.24867,-0.45614c-0.17645,-0.34063 -0.17645,-0.34063 -0.17645,-0.47761z" id="Path 1" fill="#fefefe"/><path d="M724.6255,146.5196c0.13016,0.00049 0.26033,0.00099 0.39444,0.00149c0.13639,-0.00002 0.27278,-0.00004 0.41331,-0.00006c0.45305,0.0001 0.90609,0.00116 1.35914,0.00223c0.31324,0.00026 0.62647,0.00045 0.93971,0.00059c0.82616,0.00052 1.65232,0.00187 2.47847,0.00338c0.84234,0.0014 1.68469,0.00203 2.52703,0.00272c1.65406,0.00147 3.30811,0.00381 4.96216,0.00669c-0.23134,0.61213 -0.50053,1.19443 -0.81549,1.77761c-0.0735,0.1376 -0.0735,0.1376 -0.14849,0.27799c-0.10596,0.19835 -0.21213,0.39661 -0.31847,0.59481c-0.28972,0.54014 -0.57773,1.08095 -0.86551,1.62185c-0.05951,0.11184 -0.11902,0.22368 -0.18033,0.33891c-0.54992,1.03578 -1.08557,2.07681 -1.6189,3.119c-1.04269,2.0375 -2.11718,4.06102 -3.20794,6.0797c-1.03467,1.91541 -2.04357,3.83845 -3.0131,5.77917c-0.26215,0 -0.5243,0 -0.79439,0c0.07373,-0.15681 0.07373,-0.15681 0.14895,-0.31678c0.1178,-0.2569 0.22637,-0.51703 0.32769,-0.77911c-0.67124,0.2067 -0.89847,0.59264 -1.27103,1.09589c-0.37913,0.16344 -0.6627,0.17338 -1.08546,0.20066c-0.15309,0.01068 -0.30618,0.02137 -0.46391,0.03237c-0.32227,0.02146 -0.64458,0.04251 -0.96692,0.06314c-0.23056,0.01629 -0.23056,0.01629 -0.46577,0.03291c-0.21038,0.01376 -0.21038,0.01376 -0.42501,0.02779c-0.48503,0.06461 -1.00193,0.15693 -1.35927,0.46504c-0.25359,0.01279 -0.50783,0.01609 -0.76185,0.01555c-0.16221,-0.00001 -0.32442,-0.00002 -0.49155,-0.00003c-0.17642,-0.00071 -0.35284,-0.00141 -0.5346,-0.00214c-0.17963,-0.00019 -0.35925,-0.00039 -0.54432,-0.00059c-0.57634,-0.00077 -1.15267,-0.00249 -1.72901,-0.00423c-0.38965,-0.00069 -0.77929,-0.00131 -1.16894,-0.00187c-0.95752,-0.00151 -1.91502,-0.00381 -2.87254,-0.00669c0.08848,-0.4329 0.20011,-0.80971 0.41675,-1.20746c0.07902,-0.14658 0.07902,-0.14658 0.15963,-0.29613c0.0572,-0.1042 0.1144,-0.2084 0.17333,-0.31576c0.08913,-0.16484 0.08913,-0.16484 0.18006,-0.33302c0.12689,-0.23459 0.25414,-0.46903 0.38173,-0.70334c0.33039,-0.60697 0.65801,-1.21505 0.98541,-1.82323c0.06388,-0.11859 0.12775,-0.23717 0.19357,-0.35935c0.52102,-0.96988 1.02184,-1.94611 1.497,-2.9334c0.43933,-0.90928 0.92583,-1.79878 1.41159,-2.69006c0.54383,-0.99952 1.08216,-2.00126 1.62137,-3.00263c0.06567,-0.12193 0.13135,-0.24386 0.19902,-0.36949c0.92875,-1.72548 1.84341,-3.45543 2.72794,-5.19812c0.07,-0.1376 0.14001,-0.27521 0.21214,-0.41698c0.05983,-0.11849 0.11966,-0.23698 0.1813,-0.35905c0.28171,-0.51617 0.58163,-0.41897 1.21107,-0.41998z" id="Path 1" fill="#fefefe"/><path d="M650.31659,146.53664c4.61383,0 9.22766,0 13.98131,0c-0.30854,0.79807 -0.61309,1.53548 -1.02464,2.28863c-0.05231,0.09725 -0.10462,0.19449 -0.15852,0.29469c-0.11238,0.20885 -0.22509,0.41757 -0.33808,0.62617c-0.30666,0.56634 -0.6107,1.13373 -0.91469,1.70114c-0.0624,0.11641 -0.1248,0.23281 -0.18909,0.35275c-0.61564,1.15105 -1.21073,2.30967 -1.80371,3.46949c-0.98835,1.93151 -2.00997,3.84866 -3.04435,5.76214c-0.86664,1.60351 -1.71772,3.21094 -2.53118,4.83514c-0.06271,0.12499 -0.12542,0.24998 -0.19003,0.37875c-0.05317,0.10701 -0.10634,0.21402 -0.16113,0.32427c-0.13056,0.2408 -0.13056,0.2408 -0.28944,0.37778c-0.29739,0.01286 -0.59535,0.01609 -0.89311,0.01555c-0.19084,-0.00001 -0.38168,-0.00002 -0.5783,-0.00003c-0.2077,-0.00071 -0.41539,-0.00141 -0.62938,-0.00214c-0.2135,-0.00026 -0.427,-0.00045 -0.6405,-0.00059c-0.56288,-0.00052 -1.12575,-0.00187 -1.68862,-0.00338c-0.57399,-0.0014 -1.14798,-0.00203 -1.72198,-0.00272c-1.12694,-0.00147 -2.25388,-0.00381 -3.38082,-0.00669c0.09766,-0.45131 0.20702,-0.80586 0.46671,-1.20719c0.33201,-0.54649 0.49579,-1.06735 0.64544,-1.66952c-0.918,0.13514 -1.2659,0.54431 -1.79793,1.15101c-0.2792,0.34971 -0.2792,0.34971 -0.4605,0.74165c-0.21417,0.41475 -0.36444,0.68118 -0.76026,0.98405c-0.86697,0.11951 -1.67225,0.08016 -2.54206,0c0.20268,-0.66556 0.45756,-1.25739 0.80432,-1.88035c0.10019,-0.1816 0.20031,-0.36322 0.30038,-0.54487c0.05294,-0.09556 0.10588,-0.19112 0.16043,-0.28957c0.28744,-0.52142 0.56838,-1.04544 0.84994,-1.56924c0.12165,-0.22593 0.24331,-0.45185 0.36496,-0.67777c2.76327,-5.13033 2.76327,-5.13033 5.41789,-10.30287c0.52141,-1.04098 1.07223,-2.06649 1.63479,-3.09149c0.55051,-1.01712 0.55051,-1.01712 1.11215,-2.05479z" id="Path 1" fill="#fefefe"/><path d="M697.66238,176.53664c4.45654,0 8.91308,0 13.50467,0c0,6.78082 0,13.56164 0,20.54795c-4.45654,0 -8.91308,0 -13.50467,0c0,-6.78082 0,-13.56164 0,-20.54795z" id="Path 1" fill="#ffffff"/><path d="M624.26051,176.53664c4.45654,0 8.91308,0 13.50467,0c0,6.78082 0,13.56164 0,20.54795c-4.45654,0 -8.91308,0 -13.50467,0c0,-6.78082 0,-13.56164 0,-20.54795z" id="Path 1" fill="#ffffff"/><path d="M624.26051,146.39965c4.45654,0 8.91308,0 13.50467,0c0,6.78082 0,13.56164 0,20.54795c-4.45654,0 -8.91308,0 -13.50467,0c0,-6.78082 0,-13.56164 0,-20.54795z" id="Path 1" fill="#ffffff"/><path d="M671.44743,176.53664c4.40411,0 8.80822,0 13.34579,0c0,6.78082 0,13.56164 0,20.54795c-4.40411,0 -8.80822,0 -13.34579,0c0,-6.78082 0,-13.56164 0,-20.54795z" id="Path 1" fill="#ffffff"/><path d="M671.44743,146.39965c4.40411,0 8.80822,0 13.34579,0c0,6.78082 0,13.56164 0,20.54795c-4.40411,0 -8.80822,0 -13.34579,0c0,-6.78082 0,-13.56164 0,-20.54795z" id="Path 1" fill="#ffffff"/><path d="M697.66238,146.39965c4.45654,0 8.91308,0 13.50467,0c0,6.78082 0,13.56164 0,20.54795c-3.93224,0 -7.86449,0 -11.91589,0c0.15155,-0.52268 0.28571,-0.72931 0.64544,-1.14726c0.40592,-0.50535 0.57913,-0.82543 0.46671,-1.45548c-1.02466,0.07573 -1.48014,0.71012 -2.10514,1.34418c-0.07946,0.08282 -0.15893,0.16564 -0.2408,0.25096c-0.06472,0.06127 -0.12944,0.12255 -0.19612,0.18568c-0.05243,0 -0.10486,0 -0.15888,0c0,-6.50959 0,-13.01918 0,-19.72603z" id="Path 1" fill="#fefefe"/><path d="M700.16472,164.25069c0.17695,0.04662 0.17695,0.04662 0.35748,0.09418c0.14894,0.8738 -0.34878,1.36364 -0.91355,2.03767c-0.09256,0.11349 -0.18512,0.22698 -0.28048,0.3439c-0.76847,0.93624 -1.56393,1.85524 -2.37142,2.76665c-0.36899,0.41895 -0.70924,0.84928 -1.04202,1.29013c0.07107,-0.06445 0.14213,-0.12891 0.21535,-0.19531c0.8131,-0.72198 1.46037,-1.22395 2.65563,-1.32117c0.4725,0.01484 0.74193,0.16565 1.10098,0.42059c0.36385,0.47058 0.34611,0.68292 0.31776,1.23288c1.88607,-0.20897 1.88607,-0.20897 3.39789,-1.14779c0.40469,-0.35061 0.74852,-0.48742 1.31882,-0.52172c0.36741,0.02568 0.36741,0.02568 0.52629,0.16267c0.09009,0.55671 0.03091,0.78073 -0.32769,1.25856c-0.59125,0.54867 -1.2606,0.78126 -2.125,0.82192c-0.20153,-0.01271 -0.20153,-0.01271 -0.40713,-0.02568c-0.31742,0.56446 -0.34609,1.02081 -0.31776,1.64383c1.61762,0.09962 2.53101,-0.49258 3.7535,-1.35863c0.33137,-0.25047 0.63875,-0.50762 0.94334,-0.78178c0.76936,-0.68862 1.76955,-1.399 2.89953,-1.44692c0.5498,0.00432 0.96211,0.08514 1.4597,0.29966c0.06328,-0.05933 0.12657,-0.11866 0.19177,-0.17979c0.08417,-0.07628 0.16835,-0.15257 0.25507,-0.23116c0.08295,-0.07628 0.16589,-0.15257 0.25135,-0.23116c0.25507,-0.17979 0.25507,-0.17979 0.73171,-0.17979c-0.0922,0.47138 -0.23028,0.85953 -0.47601,1.28746c-0.06257,0.11089 -0.12514,0.22179 -0.1896,0.33604c-0.06543,0.11407 -0.13087,0.22815 -0.19829,0.34568c-0.8489,1.47613 -0.8489,1.47613 -1.04264,3.09931c0.37258,0.11504 0.57436,0.15405 0.95575,0.04762c2.10416,-1.0435 3.87889,-2.76705 5.08163,-4.56817c0.20972,0.04521 0.41944,0.09041 0.63551,0.13699c-0.1839,0.42283 -0.39626,0.82329 -0.63551,1.22431c-0.50502,0.81238 -0.50502,0.81238 -0.57593,1.70377c0.03277,0.07346 0.06554,0.14692 0.0993,0.2226c1.49364,-0.75949 2.52297,-1.89379 3.4885,-3.10841c0.10711,-0.10436 0.21423,-0.20872 0.32458,-0.31625c0.20972,0 0.41944,0 0.63551,0c-0.09955,0.49713 -0.26069,0.9359 -0.47664,1.40411c-0.29736,0.68462 -0.42128,1.29275 -0.47664,2.02055c1.3372,-0.30455 2.44797,-1.02072 3.20271,-2.0259c0.35252,-0.53618 0.64965,-1.09269 0.93776,-1.65634c0.2032,-0.39529 0.41823,-0.78552 0.63257,-1.17639c0.21243,-0.38848 0.42076,-0.77854 0.62884,-1.16876c-0.27034,0.02967 -0.27034,0.02967 -0.54614,0.05993c-0.24162,0.02572 -0.48325,0.0514 -0.72488,0.07705c-0.11817,0.01307 -0.23634,0.02613 -0.3581,0.0396c-0.78724,0.08263 -1.54978,0.10982 -2.34284,0.09739c0.05243,-0.18082 0.10486,-0.36164 0.15888,-0.54794c1.48102,-0.16691 2.95825,-0.31848 4.4486,-0.41096c0.04547,-0.10648 0.09093,-0.21296 0.13778,-0.32267c0.19989,-0.40235 0.44121,-0.61977 0.81549,-0.91021c0.15729,0.04521 0.31458,0.09041 0.47664,0.13699c-0.17866,0.40711 -0.35318,0.73074 -0.63551,1.09589c0.20429,-0.00715 0.20429,-0.00715 0.41271,-0.01445c1.05167,-0.02147 1.83861,-0.02033 2.76486,0.42541c-0.05243,0.18082 -0.10486,0.36164 -0.15888,0.54794c-0.13602,-0.06698 -0.13602,-0.06698 -0.27478,-0.13531c-0.38712,-0.1488 -0.6281,-0.17059 -1.04838,-0.16541c-0.19047,0.00132 -0.19047,0.00132 -0.38478,0.00268c-0.13107,0.0023 -0.26215,0.00459 -0.3972,0.00696c-0.2003,0.00185 -0.2003,0.00185 -0.40464,0.00375c-0.32853,0.00322 -0.65704,0.00813 -0.98554,0.01338c-2.93837,4.37646 -2.93837,4.37646 -3.57477,9.22945c0.02621,0.07346 0.05243,0.14692 0.07944,0.2226c-0.38727,-0.05137 -0.38727,-0.05137 -0.79439,-0.13699c-0.53617,-0.92459 0.02902,-2.06001 0.33762,-2.98694c0.15301,-0.40612 0.15301,-0.40612 0.13902,-0.71169c-0.08848,0.05774 -0.17695,0.11549 -0.26811,0.17498c-0.82219,0.50892 -1.40811,0.79916 -2.43283,0.78393c-0.35376,-0.21938 -0.46131,-0.35254 -0.55794,-0.72078c-0.01382,-0.16449 -0.01382,-0.16449 -0.02793,-0.3323c-0.01045,-0.11072 -0.02089,-0.22144 -0.03165,-0.33551c-0.00891,-0.12635 -0.00891,-0.12635 -0.018,-0.25524c-0.09032,0.08264 -0.18064,0.16528 -0.27369,0.25043c-1.3322,1.1889 -1.3322,1.1889 -2.26836,1.53039c-0.67985,-0.03823 -0.67985,-0.03823 -0.95327,-0.27397c-0.0584,-0.31893 -0.1116,-0.63861 -0.15888,-0.9589c-0.15883,0.14648 -0.15883,0.14648 -0.32086,0.29591c-2.27946,2.06005 -2.27946,2.06005 -3.87949,2.34107c-0.566,-0.03425 -0.566,-0.03425 -0.9632,-0.29966c-0.5743,-1.01097 -0.12594,-2.00527 0.23832,-3.02226c-0.12657,0.11231 -0.25314,0.22461 -0.38354,0.34033c-0.17001,0.14915 -0.34006,0.29827 -0.51015,0.44735c-0.08295,0.07381 -0.16589,0.14762 -0.25135,0.22367c-0.52979,0.46243 -1.05457,0.85584 -1.71477,1.18044c-0.52629,-0.01712 -0.52629,-0.01712 -0.95327,-0.13699c-0.25536,-0.44034 -0.16801,-0.88166 -0.15888,-1.36986c-0.13804,0.08582 -0.27608,0.17164 -0.4183,0.26006c-0.1849,0.11314 -0.36985,0.22622 -0.55483,0.33925c-0.13579,0.08476 -0.13579,0.08476 -0.27431,0.17123c-0.90799,0.55157 -1.75007,0.8429 -2.8834,0.7363c-0.43744,-0.24598 -0.71913,-0.41816 -0.95327,-0.82192c0.01365,-0.28681 0.01365,-0.28681 0.05958,-0.61644c0.0215,-0.16316 0.0215,-0.16316 0.04344,-0.32962c0.05586,-0.28681 0.05586,-0.28681 0.21473,-0.56079c-0.9908,-0.02796 -0.9908,-0.02796 -1.85069,0.32588c-0.14737,0.16415 -0.29142,0.33055 -0.43257,0.49872c-0.65461,0.68623 -1.66308,1.23414 -2.64198,1.50417c-0.60572,-0.05137 -0.60572,-0.05137 -1.11215,-0.13699c-0.11916,-0.29966 -0.11916,-0.29966 -0.15888,-0.68493c0.44692,-0.60609 0.99033,-0.89374 1.7278,-1.19007c0.09523,-0.04035 0.19047,-0.0807 0.28859,-0.12227c0.58611,-0.24391 1.17552,-0.43923 1.79669,-0.60547c0.0265,-0.39952 0.0265,-0.39952 0,-0.82192c-0.29929,-0.31847 -0.29929,-0.31847 -0.79439,-0.29966c-1.09624,0.17132 -1.92292,1.04183 -2.55074,1.77868c-0.27548,0.36903 -0.53471,0.74198 -0.7857,1.12372c-0.10353,0.15283 -0.10353,0.15283 -0.20915,0.30875c-0.14483,0.21538 -0.28614,0.43252 -0.42637,0.65015c-0.15729,-0.04521 -0.31458,-0.09041 -0.47664,-0.13699c0.07185,-1.0455 0.40259,-1.89503 0.8639,-2.85959c0.10645,-0.22481 0.10645,-0.22481 0.21504,-0.45417c3.0293,-6.28061 3.0293,-6.28061 4.91872,-6.09549z" id="Path 1" fill="#312b2c"/><path d="M644.86507,164.0452c0.12124,0.00848 0.24249,0.01695 0.36741,0.02568c-0.08683,1.94641 -1.72623,3.74531 -3.31659,5.04281c-0.54855,0.44848 -0.84362,0.93527 -1.13201,1.53253c-0.06554,0.13562 -0.13107,0.27123 -0.1986,0.41096c-0.03932,0.09041 -0.07864,0.18082 -0.11916,0.27397c1.41305,-0.41535 2.57042,-1.28549 3.66414,-2.14041c0.15401,-0.10736 0.30803,-0.21473 0.46671,-0.32534c0.23593,0.06781 0.23593,0.06781 0.47664,0.13699c-0.07977,0.68154 -0.66824,0.96901 -1.24605,1.37756c-0.90534,0.62489 -1.88162,1.13671 -2.88479,1.63614c1.12893,0.35216 2.14571,0.45564 3.27687,0.05137c0.9679,-0.41873 1.77403,-0.96393 2.5222,-1.63527c0.68797,-0.60803 1.37843,-1.12128 2.38318,-1.19863c0.13107,0.01413 0.26215,0.02825 0.3972,0.04281c0.11916,0.2911 0.11916,0.2911 0.15888,0.68493c-0.4207,0.75701 -1.05261,1.149 -1.90654,1.50685c-0.20348,0.05369 -0.40874,0.10272 -0.61565,0.14555c-0.50109,0.08647 -0.50109,0.08647 -0.73481,0.37671c-0.09851,0.37159 -0.04579,0.62141 0.07944,0.98459c0.05243,0.04521 0.10486,0.09041 0.15888,0.13699c1.62129,0 2.75758,-0.70674 3.88259,-1.66952c0.18958,-0.17335 0.37828,-0.34742 0.566,-0.52226c0.10978,-0.092 0.21955,-0.184 0.33265,-0.27879c0.33499,-0.27946 0.33499,-0.27946 0.63055,-0.71436c0.15237,-0.18647 0.15237,-0.18647 0.30783,-0.37671c0.15729,0 0.31458,0 0.47664,0c-0.09648,0.51966 -0.27696,0.93303 -0.54614,1.40411c-0.36576,0.67174 -0.57243,1.29161 -0.72488,2.02055c1.80843,-0.89261 3.02907,-2.29897 4.28972,-3.69863c0.15729,0.04521 0.31458,0.09041 0.47664,0.13699c-0.09461,0.4801 -0.24548,0.88375 -0.47664,1.32705c-0.33528,0.69653 -0.43965,1.34813 -0.47664,2.0976c1.73555,-0.43532 2.74077,-1.43987 3.65421,-2.73973c0.12479,-0.16324 0.25044,-0.32599 0.37734,-0.48801c0.0852,-0.11019 0.1704,-0.22038 0.25818,-0.3339c0.15729,0.04521 0.31458,0.09041 0.47664,0.13699c-0.05243,0.22603 -0.10486,0.45205 -0.15888,0.68493c0.12452,-0.09041 0.24904,-0.18082 0.37734,-0.27397c0.67218,-0.38499 1.38539,-0.40859 2.16472,-0.27397c0.41706,0.30822 0.41706,0.30822 0.63551,0.68493c0,0.18082 0,0.36164 0,0.54795c0.78645,-0.09041 1.5729,-0.18082 2.38318,-0.27397c0,0.18082 0,0.36164 0,0.54795c-0.16282,0.02172 -0.32564,0.04344 -0.49339,0.06582c-0.21621,0.03214 -0.43239,0.06443 -0.64855,0.09685c-0.10701,0.01386 -0.21402,0.02772 -0.32427,0.04201c-0.81208,0.12637 -1.17568,0.36404 -1.71136,0.89121c-0.23425,0.17257 -0.47241,0.3413 -0.71495,0.50514c-0.11633,0.07964 -0.23266,0.15928 -0.35251,0.24133c-0.62092,0.36394 -1.00749,0.49907 -1.76256,0.43504c-0.16712,-0.02825 -0.33424,-0.05651 -0.50643,-0.08562c-0.07944,-0.35959 -0.07944,-0.35959 0,-0.82192c0.82994,-0.84223 2.16643,-1.1593 3.33645,-1.50685c-0.05243,-0.22603 -0.10486,-0.45205 -0.15888,-0.68493c-0.58313,-0.07332 -0.92803,-0.09963 -1.43549,0.17498c-1.86499,1.36634 -2.74755,3.13432 -3.45002,5.10756c-0.04668,0.13112 -0.09337,0.26225 -0.14146,0.39735c-0.30321,0.88381 -0.52248,1.76657 -0.69265,2.67628c-0.20972,0 -0.41944,0 -0.63551,0c0.03084,-1.35376 0.44428,-2.52439 0.9632,-3.78425c0.11281,-0.27911 0.225,-0.5584 0.33678,-0.83782c0.10035,-0.25003 0.20231,-0.49958 0.30436,-0.7491c0.15961,-0.35876 0.15961,-0.35876 0.14332,-0.65624c-0.15729,0.11019 -0.31458,0.22038 -0.47664,0.3339c-0.64281,0.39652 -1.11916,0.4767 -1.90654,0.48801c-0.47664,-0.27397 -0.47664,-0.27397 -0.55235,-0.53564c-0.00778,-0.0973 -0.01557,-0.1946 -0.02358,-0.29484c0.01093,-0.50767 0.01093,-0.50767 -0.21846,-0.67637c-0.07885,0.07275 -0.1577,0.14551 -0.23894,0.22046c-0.66625,0.59734 -1.25702,1.09141 -2.14424,1.42337c-0.44685,-0.00856 -0.44685,-0.00856 -0.79439,-0.13699c-0.38599,-0.4992 -0.34346,-0.78252 -0.31776,-1.36986c-0.09994,0.07275 -0.19989,0.14551 -0.30286,0.22046c-1.24332,0.88473 -2.45576,1.68597 -4.14574,1.56036c-0.45678,-0.21404 -0.45678,-0.21404 -0.79439,-0.54795c-0.12909,-0.5137 -0.12909,-0.5137 -0.15888,-0.9589c-0.09585,0.03797 -0.1917,0.07593 -0.29045,0.11505c-0.12698,0.04962 -0.25396,0.09924 -0.38478,0.15036c-0.12534,0.04927 -0.25068,0.09853 -0.37982,0.14929c-1.49868,0.5327 -3.01034,0.27823 -4.50569,-0.14073c-0.38578,0.79829 -0.41583,1.61312 -0.47664,2.46575c-0.20972,0 -0.41944,0 -0.63551,0c-0.0158,-0.83711 -0.01133,-1.64028 0.15888,-2.46575c-0.14091,0.13279 -0.28181,0.26558 -0.42699,0.4024c-0.90815,0.77824 -2.17454,1.76543 -3.47547,1.96918c-0.54614,-0.04281 -0.54614,-0.04281 -0.94334,-0.23116c-0.4253,-0.64172 -0.33283,-1.26605 -0.12971,-1.96757c0.08362,-0.23838 0.17127,-0.47575 0.26376,-0.71169c0.12029,-0.27709 0.12029,-0.27709 0.10426,-0.55704c-0.08848,0.08935 -0.17695,0.1787 -0.26811,0.27076c-1.8093,1.78662 -1.8093,1.78662 -2.9889,2.04088c-0.13107,0.00565 -0.26215,0.0113 -0.3972,0.01712c-0.29048,-0.28642 -0.46514,-0.47056 -0.52194,-0.85295c0.12019,-1.11626 0.62122,-1.98393 1.55465,-2.76862c0.85849,-0.46262 1.42921,-0.70455 2.46262,-0.625c0.54614,0.13699 0.54614,0.13699 0.95327,0.27397c0.26215,-0.27123 0.5243,-0.54247 0.79439,-0.82192c0.20972,0.04521 0.41944,0.09041 0.63551,0.13699c-0.2732,0.78519 -0.68883,1.47832 -1.12456,2.20248c-0.44537,0.75081 -0.83214,1.43882 -0.80184,2.30094c0.0043,0.16051 0.0043,0.16051 0.00869,0.32427c0.00369,0.07946 0.00737,0.15893 0.01117,0.2408c1.57929,-0.13997 2.77743,-1.22061 3.81308,-2.19178c0.08909,-0.07469 0.17818,-0.14939 0.26997,-0.22635c0.80595,-0.71364 1.2634,-1.54968 1.75821,-2.43579c2.93121,-5.22778 2.93121,-5.22778 4.27731,-5.30875z" id="Path 1" fill="#302b2b"/><path d="M767.7278,164.20787c0.31458,0.13562 0.31458,0.13562 0.63551,0.27397c-0.08613,0.6684 -0.33308,1.18977 -0.70502,1.77226c-0.05489,0.0881 -0.10978,0.17621 -0.16633,0.26698c-0.48854,0.76663 -1.04647,1.48877 -1.64677,2.19365c-0.43279,0.52778 -0.58267,0.87459 -0.50057,1.52053c-0.15729,0.04521 -0.31458,0.09041 -0.47664,0.13699c-0.02109,0.10913 -0.04219,0.21826 -0.06392,0.33069c-0.25383,1.31314 -0.25383,1.31314 -0.34258,1.71768c-0.07885,0.46925 -0.09118,0.91936 -0.08999,1.39341c-0.00041,0.16422 -0.00082,0.32845 -0.00124,0.49765c0.01711,0.3602 0.0559,0.65077 0.17998,0.99208c-0.20972,0 -0.41944,0 -0.63551,0c-0.80857,-1.12872 -0.29132,-2.88509 0,-4.10959c-0.09032,0.10913 -0.18064,0.21826 -0.27369,0.33069c-1.50118,1.77619 -1.50118,1.77619 -2.26836,2.13506c-0.60572,0.06849 -0.60572,0.06849 -1.11215,0c-0.43886,-0.37839 -0.40968,-0.7133 -0.47664,-1.23288c-0.10773,0.09924 -0.21545,0.19848 -0.32645,0.30073c-1.02633,0.92688 -2.11081,1.90403 -3.62566,2.17359c-0.4965,-0.00856 -0.4965,-0.00856 -0.87383,-0.17979c-0.41412,-0.38452 -0.46868,-0.78915 -0.46484,-1.30137c0.10467,-0.67512 0.41172,-1.31544 0.6833,-1.95205c-0.06322,0.05594 -0.12644,0.11189 -0.19158,0.16953c-0.28945,0.2553 -0.58017,0.5095 -0.87092,0.76369c-0.09943,0.08803 -0.19886,0.17605 -0.30131,0.26675c-0.99228,0.86451 -0.99228,0.86451 -1.65488,1.1288c-0.51636,-0.02568 -0.51636,-0.02568 -0.95327,-0.13699c-0.25536,-0.44034 -0.16801,-0.88166 -0.15888,-1.36986c-0.14766,0.09412 -0.29533,0.18824 -0.44747,0.28521c-0.19835,0.12473 -0.39674,0.2494 -0.59517,0.37404c-0.09677,0.06189 -0.19354,0.12379 -0.29324,0.18755c-0.97578,0.60985 -1.87407,1.02467 -3.10961,0.98111c-0.32086,-0.04709 -0.32086,-0.04709 -0.71806,-0.26113c-0.30515,-0.42753 -0.35293,-0.79666 -0.3972,-1.29281c-0.08295,0.07787 -0.16589,0.15575 -0.25135,0.23598c-1.00243,0.90668 -2.15599,1.87169 -3.63124,2.12703c-0.566,-0.03425 -0.566,-0.03425 -0.9632,-0.30822c-0.57067,-0.98407 -0.08251,-2.01095 0.23832,-3.0137c-0.12657,0.11231 -0.25314,0.22461 -0.38354,0.34033c-0.17001,0.14915 -0.34006,0.29827 -0.51015,0.44735c-0.08295,0.07381 -0.16589,0.14762 -0.25135,0.22367c-0.52979,0.46243 -1.05457,0.85584 -1.71477,1.18044c-0.52629,-0.01712 -0.52629,-0.01712 -0.95327,-0.13699c-0.29898,-0.51557 -0.23911,-1.08237 -0.15888,-1.64384c0.41553,-1.03463 1.30045,-1.80403 2.38318,-2.35285c0.68142,-0.24212 1.38647,-0.17105 2.06542,0.02408c0.10486,0.04521 0.20972,0.09041 0.31776,0.13699c0.06328,-0.05933 0.12657,-0.11866 0.19177,-0.17979c0.08417,-0.07628 0.16835,-0.15257 0.25507,-0.23116c0.08295,-0.07628 0.16589,-0.15257 0.25135,-0.23116c0.25507,-0.17979 0.25507,-0.17979 0.73171,-0.17979c-0.08179,0.69772 -0.37297,1.21004 -0.77453,1.80651c-0.67298,1.04192 -1.17211,2.04764 -1.13201,3.26199c0.37258,0.11504 0.57436,0.15405 0.95575,0.04762c1.83534,-0.91018 3.31077,-2.39239 4.66007,-3.7795c0.5876,-0.5385 1.21775,-0.89035 2.06992,-0.98559c0.41706,0.05993 0.41706,0.05993 0.73481,0.3339c0.05011,0.59403 0.07133,0.86665 -0.31776,1.36986c-0.15729,0 -0.31458,0 -0.47664,0c0.05243,-0.36164 0.10486,-0.72329 0.15888,-1.09589c-1.16173,0.32707 -1.83576,0.9388 -2.45269,1.84075c-0.13429,0.52746 -0.11382,1.04629 -0.08937,1.5839c1.52381,0.14598 2.47345,-0.54909 3.63435,-1.32705c0.70943,-0.49976 1.3821,-1.03185 2.0399,-1.58133c0.65296,-0.53321 1.34582,-0.99153 2.27961,-0.97004c0.55616,0.03806 0.9263,0.10395 1.41998,0.31678c0.06328,-0.05933 0.12657,-0.11866 0.19177,-0.17979c0.08417,-0.07628 0.16835,-0.15257 0.25507,-0.23116c0.08295,-0.07628 0.16589,-0.15257 0.25135,-0.23116c0.25507,-0.17979 0.25507,-0.17979 0.73171,-0.17979c-0.08674,0.72861 -0.38229,1.25756 -0.77453,1.89212c-0.92539,1.50692 -0.92539,1.50692 -1.13201,3.17637c0.40996,0.13487 0.58325,0.15524 0.9966,0.0109c0.995,-0.52639 1.80091,-1.11823 2.60796,-1.84309c0.11234,-0.09818 0.22467,-0.19636 0.34041,-0.29752c0.63881,-0.56246 1.24927,-1.1401 1.83835,-1.74156c0.59119,-0.55455 1.14822,-0.89248 2.02966,-0.96446c0.4703,-0.00143 0.93311,0.01088 1.40198,0.0412c0.07885,-0.16722 0.1577,-0.33445 0.23894,-0.50674c1.69471,-3.55683 1.69471,-3.55683 2.93863,-4.56175z" id="Path 1" fill="#2e2829"/><path d="M691.625,164.20787c0.31458,0.13562 0.31458,0.13562 0.63551,0.27397c-0.08613,0.6684 -0.33308,1.18977 -0.70502,1.77226c-0.05489,0.0881 -0.10978,0.17621 -0.16633,0.26698c-0.48854,0.76663 -1.04647,1.48877 -1.64677,2.19365c-0.43279,0.52778 -0.58267,0.87459 -0.50057,1.52053c-0.15729,0.04521 -0.31458,0.09041 -0.47664,0.13699c-0.10842,0.50191 -0.21358,1.00427 -0.31776,1.50685c-0.03277,0.15257 -0.06554,0.30514 -0.0993,0.46233c-0.11804,0.98381 -0.16354,1.99468 0.0993,2.96233c-0.20972,0 -0.41944,0 -0.63551,0c-0.38062,-0.50788 -0.36635,-1.00785 -0.35748,-1.59247c0.00061,-0.09694 0.00123,-0.19389 0.00186,-0.29377c0.01451,-0.76292 0.12507,-1.48505 0.35561,-2.22335c-0.15545,0.18091 -0.15545,0.18091 -0.31403,0.36548c-0.1402,0.16075 -0.28046,0.32145 -0.42078,0.48213c-0.06779,0.0792 -0.13558,0.1584 -0.20542,0.23999c-0.47721,0.54349 -0.95983,0.97681 -1.60182,1.37816c-0.59579,0.05993 -0.59579,0.05993 -1.11215,0c-0.31776,-0.27397 -0.31776,-0.27397 -0.34879,-0.54045c0.01034,-0.27647 0.02069,-0.55294 0.03103,-0.82941c-0.16057,0.09041 -0.32113,0.18082 -0.48657,0.27397c-0.5995,0.29297 -1.04337,0.36434 -1.73773,0.27397c-0.46189,-0.30392 -0.61006,-0.48212 -0.79439,-0.9589c-0.01102,-0.30523 -0.01344,-0.61073 -0.00993,-0.9161c0.00143,-0.16157 0.00287,-0.32315 0.00434,-0.48962c0.00184,-0.12379 0.00369,-0.24757 0.00559,-0.37511c-0.76584,0.44799 -1.10996,0.95579 -1.52921,1.64384c-0.73777,1.18626 -0.73777,1.18626 -1.17173,1.64384c-0.15729,-0.04521 -0.31458,-0.09041 -0.47664,-0.13699c-0.05243,-0.22603 -0.10486,-0.45205 -0.15888,-0.68493c-0.12288,0.10083 -0.24577,0.20166 -0.37237,0.30554c-2.51932,2.0456 -2.51932,2.0456 -4.07623,2.02322c-0.3972,-0.17979 -0.3972,-0.17979 -0.63551,-0.54795c-0.17749,-0.96568 0.10146,-1.83476 0.47664,-2.73973c-0.24312,-0.01606 -0.24312,-0.01606 -0.59828,0.37511c-0.27767,0.24464 -0.5542,0.49017 -0.82977,0.73657c-0.49317,0.43345 -0.94672,0.81458 -1.59065,1.08011c-0.42699,-0.01712 -0.42699,-0.01712 -0.79439,-0.13699c-0.40929,-0.52934 -0.34393,-0.7991 -0.25383,-1.4116c0.27072,-1.05267 0.98159,-1.82352 2.0015,-2.42402c0.63974,-0.30338 1.18203,-0.31859 1.90654,-0.27397c0.46671,0.13699 0.46671,0.13699 0.79439,0.27397c0.06144,-0.06092 0.12288,-0.12184 0.18619,-0.18461c0.08274,-0.07752 0.16548,-0.15504 0.25073,-0.23491c0.0811,-0.07787 0.16221,-0.15575 0.24577,-0.23598c0.27059,-0.16642 0.27059,-0.16642 0.62062,-0.12307c0.09421,0.0309 0.18842,0.0618 0.28548,0.09364c-0.34921,0.80292 -0.80426,1.56623 -1.24093,2.33572c-0.06257,0.11213 -0.12514,0.22426 -0.1896,0.33979c-0.05705,0.10109 -0.1141,0.20219 -0.17288,0.30635c-0.24604,0.52158 -0.32407,1.02175 -0.31306,1.5815c0.00328,0.1667 0.00655,0.33339 0.00993,0.50514c0.83566,-0.05851 1.34188,-0.3254 1.97605,-0.77055c0.09065,-0.06215 0.1813,-0.12429 0.2747,-0.18832c1.49811,-1.04031 2.74451,-2.21668 3.58989,-3.71953c0.23413,-0.30121 0.44687,-0.39347 0.83225,-0.52708c0.15888,0.41096 0.15888,0.41096 0,0.82192c0.09175,-0.07063 0.1835,-0.14127 0.27804,-0.21404c0.35748,-0.19692 0.35748,-0.19692 0.69509,-0.17123c0.2979,0.1113 0.2979,0.1113 0.61565,0.38527c0.04399,0.31555 0.07151,0.6329 0.08937,0.95034c0.03749,0.70156 0.03749,0.70156 0.22839,1.37842c1.00835,0 1.47271,-0.33653 2.19327,-0.92305c0.32434,-0.28811 0.62599,-0.5842 0.92472,-0.89202c0.49244,-0.49132 0.91906,-0.86496 1.64836,-1.06164c0.33002,-0.01391 0.66076,-0.01748 0.99113,-0.01284c0.25723,0.00278 0.25723,0.00278 0.51965,0.00562c0.1306,0.00238 0.2612,0.00477 0.39576,0.00722c0.0423,-0.0917 0.08461,-0.1834 0.1282,-0.27789c1.92326,-4.14331 1.92326,-4.14331 3.04937,-4.79061z" id="Path 1" fill="#2d2828"/><path d="M777.89603,168.72842c0.27401,0.69236 -0.00166,1.1742 -0.28797,1.82363c-0.48702,1.16733 -0.71119,2.28596 -0.82418,3.51884c0.23593,0.06781 0.23593,0.06781 0.47664,0.13699c-0.05243,0.13562 -0.10486,0.27123 -0.15888,0.41096c-0.37734,-0.04281 -0.37734,-0.04281 -0.79439,-0.13699c-0.43815,-0.56666 -0.39715,-1.01269 -0.24972,-1.67594c0.09193,-0.33393 0.19359,-0.66443 0.29937,-0.99529c0.0339,-0.11178 0.06779,-0.22356 0.10271,-0.33872c0.20888,-0.66984 0.46571,-1.29099 0.80091,-1.92155c-0.10486,0 -0.20972,0 -0.31776,0c-0.0426,0.0807 -0.0852,0.1614 -0.12909,0.24454c-0.1905,0.30634 -0.39208,0.52003 -0.6653,0.77429c-0.36782,0.34958 -0.7084,0.70487 -1.02837,1.08733c-0.0681,0.08045 -0.13619,0.16089 -0.20636,0.24377c-0.13462,0.1603 -0.26711,0.32195 -0.3972,0.485c-0.34353,0.40558 -0.5412,0.57692 -1.10812,0.71868c-0.21658,0.00397 -0.21658,0.00397 -0.43754,0.00803c-0.28627,-0.24682 -0.18722,-0.57598 -0.1955,-0.90432c0.04993,-0.44801 0.20188,-0.85819 0.35437,-1.28746c-0.10732,0.14197 -0.21463,0.28395 -0.3252,0.43022c-0.14312,0.18767 -0.28627,0.37531 -0.42947,0.56293c-0.07045,0.09341 -0.14091,0.18683 -0.21349,0.28307c-0.3768,0.4921 -0.74566,0.92752 -1.25613,1.32652c-0.20972,-0.09041 -0.41944,-0.18082 -0.63551,-0.27397c0.05243,-0.36164 0.10486,-0.72329 0.15888,-1.09589c-0.13435,0.08423 -0.2687,0.16846 -0.40713,0.25524c-2.50306,1.54718 -2.50306,1.54718 -3.88259,1.38859c-0.73598,-0.31023 -0.73598,-0.31023 -0.95327,-0.68493c-0.14943,-1.03075 0.24641,-1.64512 0.95327,-2.46575c0.54386,-0.54913 1.12962,-1.07787 1.90654,-1.36986c0.51636,-0.03425 0.51636,-0.03425 0.95327,0c0.05243,0.04521 0.10486,0.09041 0.15888,0.13699c-0.02533,0.5678 -0.08964,0.88165 -0.4965,1.33562c-0.62271,0.42019 -1.23155,0.67393 -2.01577,0.77911c-0.36565,0.04851 -0.36565,0.04851 -0.55607,0.30822c-0.1357,0.39354 -0.1408,0.73032 -0.10923,1.1387c0.17631,0.17908 0.17631,0.17908 0.61565,0.19692c1.69096,-0.03852 3.10909,-1.3385 4.23929,-2.30569c0.24758,-0.23767 0.45048,-0.48655 0.65739,-0.75135c0.12083,-0.14109 0.24167,-0.28218 0.36617,-0.42755c0.15729,0 0.31458,0 0.47664,0c-0.09958,0.50161 -0.26128,0.94273 -0.48657,1.41267c-0.05755,0.12096 -0.1151,0.24192 -0.17439,0.36655c-0.04403,0.09094 -0.08807,0.18188 -0.13343,0.27558c0.09401,-0.12061 0.18801,-0.24121 0.28486,-0.36548c0.12677,-0.16074 0.25358,-0.32144 0.38044,-0.48213c0.06154,-0.0792 0.12309,-0.1584 0.1865,-0.23999c0.40627,-0.5124 0.8284,-0.96532 1.3725,-1.37816c0.36741,0.02568 0.36741,0.02568 0.63551,0.13699c-0.09639,0.58525 -0.25818,1.11265 -0.48657,1.66952c-0.24324,0.58994 -0.24324,0.58994 -0.30783,1.20719c0.0981,-0.11266 0.1962,-0.22532 0.29728,-0.3414c2.82503,-3.22025 2.82503,-3.22025 3.99244,-3.22025z" id="Path 1" fill="#2f292a"/><path d="M782.82126,169.55034c0.20972,0.04521 0.41944,0.09041 0.63551,0.13699c0.01554,0.65634 -0.04424,1.26948 -0.15888,1.91781c0.17613,-0.07911 0.35226,-0.15822 0.53373,-0.23973c0.23249,-0.1028 0.46502,-0.20553 0.69758,-0.30822c0.11592,-0.05227 0.23184,-0.10454 0.35127,-0.15839c0.11264,-0.04944 0.22528,-0.09889 0.34134,-0.14983c0.10317,-0.04591 0.20634,-0.09182 0.31264,-0.13913c0.3055,-0.1006 0.3055,-0.1006 0.94101,-0.1006c-0.04581,0.25715 -0.04581,0.25715 -0.15888,0.54795c-0.40667,0.20343 -0.79441,0.37472 -1.22138,0.53938c-1.55058,0.60703 -2.33927,1.21202 -3.01869,2.56849c-2.23283,4.23433 -2.23283,4.23433 -3.86273,5.24829c-0.42326,0.03746 -0.42326,0.03746 -0.79439,0c-0.15888,-0.13699 -0.15888,-0.13699 -0.16881,-0.625c0.3345,-2.31836 2.6548,-4.6957 4.60748,-6.16438c0.46463,-0.47345 0.54333,-0.96364 0.64544,-1.56678c-0.12995,0.12926 -0.12995,0.12926 -0.26252,0.26113c-2.48736,2.43423 -2.48736,2.43423 -3.63993,2.5214c-0.18023,-0.01413 -0.36046,-0.02825 -0.54614,-0.04281c-0.40706,-0.52646 -0.44204,-0.89963 -0.31776,-1.50685c0.76211,-1.85522 0.76211,-1.85522 1.42991,-2.46575c0.15729,0 0.31458,0 0.47664,0c-0.05208,0.56882 -0.24059,0.98448 -0.54614,1.48116c-0.39239,0.64437 -0.57776,1.22853 -0.72488,1.94349c0.90572,-0.28361 1.47104,-0.63677 2.13493,-1.23288c0.08872,-0.07791 0.17744,-0.15581 0.26884,-0.23608c0.77166,-0.69147 1.4292,-1.42947 2.04482,-2.22967z" id="Path 1" fill="#2f292a"/><path d="M730.0736,169.55034c0.20972,0.04521 0.41944,0.09041 0.63551,0.13699c0.01554,0.65634 -0.04424,1.26948 -0.15888,1.91781c0.24423,-0.12105 0.24423,-0.12105 0.49339,-0.24454c0.21612,-0.10409 0.4323,-0.20807 0.64855,-0.31196c0.10701,-0.05342 0.21402,-0.10683 0.32427,-0.16187c0.8107,-0.3853 0.8107,-0.3853 1.39174,-0.34273c0.10547,0.03373 0.21095,0.06746 0.31962,0.1022c-0.15888,0.41096 -0.15888,0.41096 -0.43133,0.54206c-0.1748,0.05801 -0.1748,0.05801 -0.35313,0.11719c-1.44425,0.51918 -2.78259,1.10921 -3.44071,2.38549c-0.07424,0.14026 -0.14848,0.28053 -0.22497,0.42504c-0.07813,0.14898 -0.15627,0.29796 -0.23677,0.45146c-1.99381,3.69585 -1.99381,3.69585 -3.57477,4.84589c-0.42699,0.04281 -0.42699,0.04281 -0.79439,0c-0.15888,-0.13699 -0.15888,-0.13699 -0.20232,-0.55597c0.05143,-0.63917 0.25538,-1.07606 0.57966,-1.64437c0.05699,-0.1013 0.11397,-0.20261 0.17269,-0.30698c0.88281,-1.51924 1.98959,-2.73513 3.42256,-3.89227c0.70445,-0.59202 0.95403,-1.13746 1.11153,-1.95657c-0.06072,0.05866 -0.12145,0.11732 -0.18401,0.17775c-0.28134,0.27019 -0.56498,0.5385 -0.8487,0.80683c-0.09544,0.09227 -0.19088,0.18453 -0.28921,0.27959c-0.75726,0.71196 -1.56107,1.40711 -2.70962,1.53548c-0.41706,-0.05993 -0.41706,-0.05993 -0.73481,-0.3339c-0.28297,-0.93191 0.12572,-1.72066 0.59579,-2.54281c0.08275,-0.14691 0.08275,-0.14691 0.16718,-0.29678c0.42249,-0.69775 0.42249,-0.69775 0.84707,-0.81834c0.09785,-0.01343 0.19569,-0.02686 0.2965,-0.0407c-0.09241,0.50581 -0.258,0.88104 -0.54614,1.32705c-0.41265,0.68382 -0.5993,1.33806 -0.72488,2.0976c1.9789,-0.67605 3.25674,-2.24472 4.4486,-3.69863z" id="Path 1" fill="#2e2929"/><path d="M630.77453,168.86541c-0.0583,0.93824 -0.32592,1.76096 -0.6648,2.64742c-0.26496,0.69356 -0.47167,1.32073 -0.45728,2.05292c0.00328,0.1667 0.00655,0.33339 0.00993,0.50514c0.15729,0.06781 0.15729,0.06781 0.31776,0.13699c0,0.13562 0,0.27123 0,0.41096c-0.26215,0 -0.5243,0 -0.79439,0c-0.44804,-0.57945 -0.39197,-1.25566 -0.26524,-1.91854c0.07094,-0.27302 0.15057,-0.54258 0.23545,-0.81262c0.04293,-0.14224 0.04293,-0.14224 0.08673,-0.28735c0.21285,-0.6938 0.45743,-1.37396 0.73745,-2.04998c-0.82147,0.76565 -1.57956,1.55996 -2.30335,2.39469c-0.36722,0.42043 -0.73017,0.82105 -1.19198,1.16696c-0.43692,0.03425 -0.43692,0.03425 -0.79439,0c-0.28724,-0.83303 0.02597,-1.52995 0.31776,-2.32877c-0.05045,0.06839 -0.10089,0.13679 -0.15287,0.20725c-0.22976,0.31083 -0.46046,0.62114 -0.69118,0.93145c-0.07936,0.10763 -0.15872,0.21526 -0.24049,0.32615c-0.07731,0.10374 -0.15463,0.20749 -0.23428,0.31437c-0.07072,0.09541 -0.14144,0.19082 -0.21431,0.28912c-0.211,0.25613 -0.41172,0.46954 -0.69118,0.67139c-0.34755,-0.04281 -0.34755,-0.04281 -0.63551,-0.13699c0.05259,-1.29237 0.59698,-2.6214 1.42991,-3.69863c0.20972,0 0.41944,0 0.63551,0c-0.09589,0.52743 -0.28085,0.93986 -0.566,1.41267c-0.0723,0.12096 -0.14459,0.24192 -0.21908,0.36655c-0.08325,0.13641 -0.08325,0.13641 -0.16819,0.27558c0.56838,-0.60323 1.09463,-1.2281 1.61982,-1.85948c0.28673,-0.3323 0.28673,-0.3323 0.60448,-0.60627c0.20972,0 0.41944,0 0.63551,0c-0.07249,0.78753 -0.21535,1.45921 -0.53684,2.19927c-0.12284,0.28511 -0.12284,0.28511 -0.09868,0.67744c0.05841,-0.06209 0.11682,-0.12418 0.17699,-0.18816c0.26862,-0.2855 0.53735,-0.57093 0.80607,-0.85637c0.09185,-0.09765 0.18371,-0.1953 0.27835,-0.29591c2.07114,-2.19941 2.07114,-2.19941 3.02831,-1.94724z" id="Path 1" fill="#2e2828"/><path d="M687.81192,169.82431c0,0.46626 -0.07392,0.54705 -0.38913,0.90646c-0.08243,0.09447 -0.16487,0.18894 -0.2498,0.28628c-0.08735,0.098 -0.1747,0.19601 -0.26469,0.29698c-0.08428,0.09694 -0.16855,0.19389 -0.25538,0.29377c-0.47552,0.54029 -0.94669,1.05862 -1.54193,1.50417c-0.44685,-0.02568 -0.44685,-0.02568 -0.79439,-0.13699c0.04491,-1.06473 0.49603,-1.80254 1.37591,-2.55405c0.74481,-0.54751 1.14862,-0.61214 2.11942,-0.59664z" id="Path 1" fill="#f1cdc6"/><path d="M763.91472,169.82431c0,0.46626 -0.07392,0.54705 -0.38913,0.90646c-0.08243,0.09447 -0.16487,0.18894 -0.2498,0.28628c-0.08735,0.098 -0.1747,0.19601 -0.26469,0.29698c-0.08428,0.09694 -0.16855,0.19389 -0.25538,0.29377c-0.47509,0.5398 -0.94044,1.06555 -1.54193,1.50417c-0.20972,0 -0.41944,0 -0.63551,0c-0.07199,-0.86903 0.03636,-1.4754 0.63551,-2.19178c0.89156,-0.78694 1.40769,-1.11654 2.70094,-1.09589z" id="Path 1" fill="#f3cfc8"/><path d="M672.71846,170.09828c0.10486,0.13562 0.20972,0.27123 0.31776,0.41096c-0.06922,0.0581 -0.13845,0.11619 -0.20977,0.17605c-0.48173,0.40906 -0.94324,0.81772 -1.36909,1.27087c-0.50713,0.52375 -1.11001,0.90593 -1.75759,1.29281c-0.10486,-0.04521 -0.20972,-0.09041 -0.31776,-0.13699c0.00539,-1.00378 0.31654,-1.59991 1.11215,-2.32877c0.76581,-0.58525 1.18725,-0.7488 2.2243,-0.68493z" id="Path 1" fill="#f2cec7"/><path d="M634.26986,170.09828c0.10486,0.13562 0.20972,0.27123 0.31776,0.41096c-0.34584,0.32956 -0.69403,0.65721 -1.04264,0.98459c-0.09677,0.09227 -0.19354,0.18453 -0.29324,0.27959c-0.61905,0.57893 -1.23896,1.0403 -2.00057,1.47555c-0.10486,-0.04521 -0.20972,-0.09041 -0.31776,-0.13699c0.04528,-1.07352 0.49409,-1.8044 1.38336,-2.55886c0.63299,-0.43613 1.12731,-0.56652 1.95309,-0.45484z" id="Path 1" fill="#f2cec7"/><path d="M710.37266,170.09828c0.10486,0.13562 0.20972,0.27123 0.31776,0.41096c-0.61752,0.63116 -1.25923,1.23972 -1.9264,1.83219c-0.12821,0.11407 -0.25642,0.22815 -0.38851,0.34568c-0.38568,0.28763 -0.69875,0.42737 -1.18042,0.56186c-0.06969,-0.85621 0.03351,-1.36554 0.63551,-2.05479c0.73358,-0.71359 1.3861,-1.22878 2.54206,-1.09589z" id="Path 1" fill="#f4d0c9"/><path d="M740.71846,170.09828c0.10486,0.04521 0.20972,0.09041 0.31776,0.13699c-0.09237,0.49024 -0.2999,0.72226 -0.70254,1.07128c-0.11059,0.09589 -0.22119,0.19177 -0.33513,0.29056c-0.11633,0.09871 -0.23266,0.19742 -0.35251,0.29912c-0.11387,0.09977 -0.22774,0.19954 -0.34506,0.30233c-0.11141,0.09553 -0.22283,0.19106 -0.33762,0.28949c-0.15199,0.13035 -0.15199,0.13035 -0.30705,0.26334c-0.35434,0.24682 -0.68679,0.36999 -1.11541,0.49758c-0.09673,-0.9341 0.09848,-1.46787 0.79439,-2.19178c0.77541,-0.66139 1.26356,-0.99913 2.38318,-0.9589z" id="Path 1" fill="#f4d0c9"/><path d="M754.85864,170.09828c0.10486,0.04521 0.20972,0.09041 0.31776,0.13699c-0.09237,0.49024 -0.2999,0.72226 -0.70254,1.07128c-0.11059,0.09589 -0.22119,0.19177 -0.33513,0.29056c-0.11633,0.09871 -0.23266,0.19742 -0.35251,0.29912c-0.11387,0.09977 -0.22774,0.19954 -0.34506,0.30233c-0.11141,0.09553 -0.22283,0.19106 -0.33762,0.28949c-0.15199,0.13035 -0.15199,0.13035 -0.30705,0.26334c-0.35434,0.24682 -0.68679,0.36999 -1.11541,0.49758c-0.09673,-0.9341 0.09848,-1.46787 0.79439,-2.19178c0.77541,-0.66139 1.26356,-0.99913 2.38318,-0.9589z" id="Path 1" fill="#f4d0c9"/><path d="M662.23248,170.09828c0.31776,0.27397 0.31776,0.27397 0.33017,0.60734c-0.17129,0.35156 -0.17129,0.35156 -0.6802,0.57898c-0.21319,0.06679 -0.4276,0.13073 -0.64296,0.1921c-0.78134,0.2317 -1.42053,0.4404 -2.0257,0.95034c-0.14076,0.42995 -0.14076,0.42995 -0.15888,0.82192c-0.10486,-0.13562 -0.20972,-0.27123 -0.31776,-0.41096c-0.10486,0.04521 -0.20972,0.09041 -0.31776,0.13699c0.54181,-1.2926 2.03135,-3.15323 3.81308,-2.87671z" id="Path 1" fill="#f2cec8"/><path d="M728.48481,173.9339c0,1.0769 -1.01739,2.17393 -1.67815,3.06507c-0.05774,0.07811 -0.11548,0.15621 -0.17498,0.23668c-0.40258,0.53198 -0.84526,1.01209 -1.32444,1.49277c-0.15888,-0.27397 -0.15888,-0.27397 -0.08565,-0.53296c0.72466,-1.61275 1.87093,-3.02514 3.26322,-4.26156z" id="Path 1" fill="#ebc9c2"/><path d="M781.23248,173.9339c0.05243,0.09041 0.10486,0.18082 0.15888,0.27397c-0.19185,0.36782 -0.39331,0.71628 -0.61565,1.07021c-0.06442,0.10385 -0.12885,0.20771 -0.19522,0.31471c-0.60669,0.95912 -1.30395,1.84198 -2.04894,2.72468c-0.10486,0.13562 -0.20972,0.27123 -0.31776,0.41096c-0.10486,-0.04521 -0.20972,-0.09041 -0.31776,-0.13699c0.74053,-1.75184 1.82973,-3.31248 3.33645,-4.65753z" id="Path 1" fill="#eac8c2"/><path d="M726.26051,176.53664c0.10486,0 0.20972,0 0.31776,0c0.05567,0.51151 0.04459,0.76099 -0.27804,1.20184c-0.11797,0.1176 -0.23593,0.23521 -0.35748,0.35638c-0.17695,0.17959 -0.17695,0.17959 -0.35748,0.3628c-0.13763,0.13403 -0.13763,0.13403 -0.27804,0.27076c-0.15888,-0.27397 -0.15888,-0.27397 -0.05213,-0.58112c0.05653,-0.11902 0.11305,-0.23804 0.17129,-0.36066c0.05489,-0.11831 0.10978,-0.23662 0.16633,-0.35852c0.18803,-0.33794 0.38004,-0.61074 0.66779,-0.89148z" id="Path 1" fill="#edecec"/><path d="M698.93341,172.01609c-0.22453,0.15471 -0.44974,0.30867 -0.67523,0.46233c-0.12534,0.08582 -0.25068,0.17164 -0.37982,0.26006c-0.33187,0.2094 -0.63016,0.37714 -1.01037,0.51049c-0.35748,-0.05137 -0.35748,-0.05137 -0.63551,-0.13699c1.84213,-1.46612 1.84213,-1.46612 2.70093,-1.09589z" id="Path 1" fill="#e2c1ba"/><path d="M778.8493,176.81061c0.10486,0 0.20972,0 0.31776,0c0.07752,0.44559 0.06357,0.73248 -0.21225,1.12051c-0.23931,0.27221 -0.48398,0.53743 -0.74102,0.7973c-0.10486,-0.04521 -0.20972,-0.09041 -0.31776,-0.13699c0.12861,-0.27129 0.25781,-0.54237 0.38727,-0.81336c0.07189,-0.15098 0.14377,-0.30196 0.21784,-0.45751c0.18929,-0.37297 0.18929,-0.37297 0.34817,-0.50995z" id="Path 1" fill="#edecec"/><path d="M630.33762,168.77123c0.09175,0.03108 0.1835,0.06216 0.27804,0.09418c-0.1153,0.05456 -0.23061,0.10913 -0.34941,0.16535c-0.47028,0.25958 -0.82119,0.54286 -1.20959,0.88774c-0.18832,0.16608 -0.18832,0.16608 -0.38044,0.33551c-0.14101,0.12635 -0.14101,0.12635 -0.28486,0.25524c-0.10486,-0.04521 -0.20972,-0.09041 -0.31776,-0.13699c0.19784,-0.19749 0.39662,-0.39427 0.59579,-0.59075c0.11059,-0.10966 0.22119,-0.21932 0.33513,-0.3323c0.81264,-0.7403 0.81264,-0.7403 1.33309,-0.67798z" id="Path 1" fill="#3a3232"/><path d="M661.59696,172.01609c-0.22697,0.14154 -0.4557,0.281 -0.68516,0.41952c-0.19078,0.11681 -0.19078,0.11681 -0.3854,0.23598c-0.11858,0.05492 -0.23716,0.10984 -0.35934,0.16642c-0.15729,-0.04521 -0.31458,-0.09041 -0.47664,-0.13699c1.28775,-0.95169 1.28775,-0.95169 1.90654,-0.68493z" id="Path 1" fill="#e0bfb9"/><path d="M624.73715,170.50924c0.10486,0.04521 0.20972,0.09041 0.31776,0.13699c-0.08439,0.61846 -0.37594,1.00639 -0.79439,1.50685c-0.19286,-0.49885 -0.10605,-0.59338 0.14895,-1.05308c0.09063,-0.16608 0.09063,-0.16608 0.18308,-0.33551c0.04772,-0.08423 0.09544,-0.16846 0.1446,-0.25524z" id="Path 1" fill="#d4b5af"/><path d="M768.5222,169.82431c-0.21927,0.45688 -0.45273,0.71042 -0.95327,0.9589c-0.15729,-0.04521 -0.31458,-0.09041 -0.47664,-0.13699c0.1779,-0.1378 0.35683,-0.2746 0.53621,-0.41096c0.1493,-0.11443 0.1493,-0.11443 0.30162,-0.23116c0.27431,-0.17979 0.27431,-0.17979 0.59207,-0.17979z" id="Path 1" fill="#dfbeb8"/><path d="M704.65304,169.82431c0,0.13562 0,0.27123 0,0.41096c-0.36741,0.30822 -0.36741,0.30822 -0.79439,0.54795c-0.15729,-0.04521 -0.31458,-0.09041 -0.47664,-0.13699c0.91355,-0.66781 0.91355,-0.66781 1.27103,-0.82192z" id="Path 1" fill="#e3c1bb"/><path d="M648.7278,169.82431c0,0.13562 0,0.27123 0,0.41096c-0.36741,0.30822 -0.36741,0.30822 -0.79439,0.54795c-0.15729,-0.04521 -0.31458,-0.09041 -0.47664,-0.13699c0.41944,-0.27123 0.83888,-0.54247 1.27103,-0.82192z" id="Path 1" fill="#e6c4be"/><path d="M728.48481,173.9339c0,0.43162 -0.04432,0.60527 -0.31776,0.9589c-0.33762,0.10274 -0.33762,0.10274 -0.63551,0.13699c0.22919,-0.46108 0.52949,-0.75486 0.95327,-1.09589z" id="Path 1" fill="#debdb7"/><path d="M658.89603,172.01609c0.31776,0.41096 0.31776,0.41096 0.25818,0.8476c-0.03277,0.12714 -0.06554,0.25428 -0.0993,0.38527c-0.10486,-0.13562 -0.20972,-0.27123 -0.31776,-0.41096c-0.15729,0.06781 -0.15729,0.06781 -0.31776,0.13699c0.2979,-0.65068 0.2979,-0.65068 0.47664,-0.9589z" id="Path 1" fill="#d4b5af"/><g id="Group 1"><path d="M619.49416,141.60513c56.1,0 112.2,0 170,0c0,19.8 0,39.6 0,60c-56.1,0 -112.2,0 -170,0c0,-19.8 0,-39.6 0,-60z" id="Path 1" fill="#f9d4cd"/><path d="M745.48481,176.53664c4.24682,0 8.49365,0 12.86916,0c-0.31776,1.78082 -0.31776,1.78082 -0.63551,2.87671c2.93607,0 5.87215,0 8.8972,0c-0.31458,-1.08493 -0.31458,-1.08493 -0.63551,-2.19178c0,-0.22603 0,-0.45205 0,-0.68493c4.0371,0 8.07421,0 12.23365,0c-0.18257,0.47224 -0.35818,0.9147 -0.57593,1.36986c-0.20893,0.47071 -0.26262,0.86213 -0.21846,1.36986c0.49862,0.04216 0.7298,0.0381 1.15001,-0.20976c0.10875,-0.089 0.2175,-0.178 0.32955,-0.26969c0.1108,-0.089 0.2216,-0.178 0.33575,-0.26969c0.08254,-0.06922 0.16507,-0.13844 0.25011,-0.20976c0.30302,0.3919 0.40081,0.62125 0.5238,1.06914c0.05559,0.19819 0.05559,0.19819 0.11229,0.40039c0.03913,0.14228 0.07826,0.28456 0.11858,0.43116c0.3028,1.07446 0.62116,2.14127 0.98306,3.20205c0.3816,1.12337 0.71839,2.25377 1.04264,3.39041c0.35353,1.23923 0.73001,2.46822 1.14737,3.69251c0.40682,1.20718 0.75355,2.42694 1.09927,3.64803c0.04424,0.15557 0.08848,0.31114 0.13405,0.47143c0.03886,0.13808 0.07772,0.27616 0.11776,0.41842c0.11819,0.40658 0.11819,0.40658 0.29697,0.81904c0.14383,0.40263 0.14383,0.40263 0.14383,1.08756c-4.5614,0 -9.1228,0 -13.82243,0c-1.12409,-4.03833 -1.12409,-4.03833 -1.50035,-5.52577c-0.07131,-0.28125 -0.1438,-0.56226 -0.21629,-0.84329c-0.04641,-0.18237 -0.09275,-0.36475 -0.13902,-0.54714c-0.06079,-0.23847 -0.06079,-0.23847 -0.12281,-0.48176c-0.08696,-0.41026 -0.08696,-0.41026 -0.08696,-0.9582c-4.66626,0 -9.33252,0 -14.14019,0c-0.05243,0.31644 -0.10486,0.63288 -0.15888,0.9589c-0.08636,0.35481 -0.17598,0.70759 -0.27121,1.06057c-0.02648,0.09954 -0.05296,0.19908 -0.08024,0.30163c-0.08433,0.31656 -0.1693,0.633 -0.25427,0.94944c-0.05517,0.2069 -0.1103,0.4138 -0.1654,0.62072c-0.13749,0.51571 -0.27599,1.03122 -0.41497,1.54663c-0.08794,0.32668 -0.1753,0.65347 -0.26267,0.98026c-0.0572,0.21258 -0.11442,0.42515 -0.17168,0.63771c-0.0264,0.09917 -0.05281,0.19835 -0.08001,0.30052c-0.18798,0.69458 -0.18798,0.69458 -0.36497,0.99978c-4.45654,0 -8.91308,0 -13.50467,0c0.09936,-0.68532 0.1932,-1.28345 0.38416,-1.94082c0.04475,-0.15469 0.0895,-0.30938 0.13561,-0.46875c0.04803,-0.16263 0.09605,-0.32527 0.14554,-0.49283c0.04987,-0.17058 0.09974,-0.34116 0.15112,-0.51691c0.32552,-1.10338 0.67533,-2.19863 1.0471,-3.29098c0.33648,-0.99887 0.62873,-2.00578 0.91685,-3.01574c0.32102,-1.12526 0.65415,-2.24424 1.03271,-3.35616c0.43665,-1.28339 0.81608,-2.57723 1.186,-3.87602c0.32943,-1.15565 0.68244,-2.30216 1.0383,-3.45275z" id="Path 1" fill="#fefefe"/><path d="M754.85864,146.53664c4.92841,0 9.85682,0 14.93458,0c0.26126,0.56314 0.4552,1.09019 0.63365,1.67434c0.02915,0.09504 0.05831,0.19009 0.08834,0.28801c0.09416,0.30753 0.18756,0.61522 0.28093,0.92293c0.06477,0.21213 0.12956,0.42425 0.19437,0.63637c0.37414,1.22703 0.73872,2.45581 1.0902,3.68783c0.22057,0.76892 0.46965,1.52885 0.72748,2.28914c0.19486,0.60086 0.36776,1.20539 0.53994,1.81132c0.26756,0.93986 0.55879,1.87083 0.87383,2.79966c0.39693,1.17527 0.75639,2.35733 1.10222,3.54452c0.048,0.16369 0.096,0.32739 0.14546,0.49604c0.04478,0.15522 0.08955,0.31043 0.13568,0.47036c0.03969,0.13736 0.07939,0.27472 0.12028,0.41624c0.1147,0.45365 0.18772,0.91457 0.26388,1.37421c-2.88365,0 -5.76729,0 -8.73832,0c0.243,-0.62854 0.50305,-1.1737 0.84094,-1.76049c0.13004,-0.34071 0.09074,-0.50902 -0.04655,-0.84225c-0.29863,-0.00257 -0.29863,-0.00257 -0.63551,0.13699c-0.24665,0.31017 -0.45288,0.60296 -0.65537,0.93322c-0.05509,0.08626 -0.11018,0.17252 -0.16695,0.2614c-0.26641,0.41936 -0.51844,0.84344 -0.76646,1.27114c-0.68159,0 -1.36318,0 -2.06542,0c-0.35612,-1.45541 -0.63955,-2.91148 -0.88376,-4.38356c-0.03336,-0.19764 -0.06677,-0.39527 -0.10023,-0.59289c-0.21283,-1.2623 -0.41249,-2.52592 -0.60479,-3.79067c-0.02634,0.1496 -0.02634,0.1496 -0.05322,0.30222c-0.16577,0.94124 -0.33172,1.88246 -0.49786,2.82365c-0.08541,0.48384 -0.17074,0.96769 -0.25592,1.45156c-0.09799,0.55666 -0.19629,1.11327 -0.2946,1.66989c-0.03046,0.17325 -0.06091,0.34651 -0.0923,0.52501c-0.02862,0.16176 -0.05723,0.32352 -0.08671,0.49018c-0.02505,0.14206 -0.0501,0.28412 -0.07591,0.43048c-0.06779,0.35949 -0.14943,0.71699 -0.23227,1.07413c-3.93224,0 -7.86449,0 -11.91589,0c0.10871,-0.84355 0.2371,-1.58423 0.4965,-2.3887c0.03442,-0.10979 0.06884,-0.21958 0.1043,-0.3327c0.07575,-0.24137 0.15197,-0.48263 0.22858,-0.72379c0.22585,-0.71175 0.44754,-1.42447 0.67004,-2.137c0.04744,-0.1515 0.09488,-0.303 0.14375,-0.45908c0.34543,-1.10453 0.68219,-2.21086 1.01526,-3.31821c0.34041,-1.12909 0.69287,-2.25525 1.0466,-3.38128c0.34338,-1.09636 0.67422,-2.19525 1.00176,-3.2952c1.11083,-3.72204 1.11083,-3.72204 1.48949,-4.375z" id="Path 1" fill="#fefefe"/><path d="M638.24182,176.53664c4.92841,0 9.85682,0 14.93458,0c0.78645,1.49178 1.5729,2.98356 2.38318,4.52055c0.37319,0.70263 0.74644,1.40523 1.12051,2.10751c0.95546,1.79467 1.89219,3.59588 2.81689,5.40248c1.03758,2.02536 2.1169,4.03352 3.20736,6.03808c0.06276,0.11583 0.12553,0.23166 0.1902,0.351c0.11768,0.21716 0.23582,0.43415 0.3545,0.65091c0.24282,0.44871 0.43233,0.85797 0.57223,1.34044c-4.82355,0 -9.6471,0 -14.61682,0c-1.46388,-2.52434 -1.46388,-2.52434 -1.95929,-3.42894c-0.05692,-0.10348 -0.11384,-0.20696 -0.17249,-0.31358c-0.18011,-0.32771 -0.35978,-0.65559 -0.53936,-0.98351c-0.06251,-0.11398 -0.12502,-0.22796 -0.18943,-0.34539c-1.17451,-2.14183 -2.32519,-4.29233 -3.45722,-6.4511c-0.2115,-0.40318 -0.4233,-0.80624 -0.6351,-1.2093c-0.15129,-0.28829 -0.30205,-0.57679 -0.45276,-0.86532c-0.54339,-1.03695 -1.11123,-2.0585 -1.70651,-3.0742c-0.39371,-0.68003 -0.76172,-1.36935 -1.12557,-2.06155c-0.07076,-0.13279 -0.14152,-0.26558 -0.21442,-0.4024c-0.1,-0.18965 -0.1,-0.18965 -0.20201,-0.38313c-0.05948,-0.11262 -0.11897,-0.22523 -0.18025,-0.34126c-0.1282,-0.27732 -0.1282,-0.27732 -0.1282,-0.55129z" id="Path 1" fill="#fefefe"/><path d="M711.48481,176.53664c4.61383,0 9.22766,0 13.98131,0c-0.31776,0.82192 -0.31776,0.82192 -0.57593,1.29281c-0.23258,0.51956 -0.25762,0.89536 -0.21846,1.44692c0.37338,0.04512 0.37338,0.04512 0.79439,0c0.31238,-0.23153 0.31238,-0.23153 0.566,-0.53938c0.36753,-0.41495 0.56972,-0.62076 1.18166,-0.69349c0.8099,1.33226 1.51814,2.69669 2.21538,4.07508c0.39963,0.7894 0.80324,1.57605 1.2303,2.35472c0.39945,0.7291 0.78408,1.46276 1.1618,2.20034c0.38792,0.75737 0.78245,1.51125 1.19159,2.26027c0.40914,0.74902 0.80364,1.50292 1.19159,2.26027c0.66411,1.29567 1.35414,2.58011 2.06418,3.85756c0.0517,0.09373 0.1034,0.18747 0.15667,0.28404c0.09927,0.17992 0.19928,0.35953 0.30015,0.53878c0.21234,0.38595 0.33882,0.63987 0.33882,1.07305c-4.82355,0 -9.6471,0 -14.61682,0c-2.73535,-5.01168 -2.73535,-5.01168 -4.08554,-7.52462c-0.52296,-0.97203 -1.05098,-1.94198 -1.57936,-2.91183c-0.81287,-1.49209 -1.61991,-2.98615 -2.41305,-4.48613c-0.41633,-0.78623 -0.83739,-1.57044 -1.26238,-2.35321c-0.05141,-0.09473 -0.10283,-0.18947 -0.1558,-0.28707c-0.25442,-0.4686 -0.50926,-0.93703 -0.76461,-1.40526c-0.09226,-0.16969 -0.18451,-0.33939 -0.27676,-0.50908c-0.08206,-0.15053 -0.16413,-0.30105 -0.24867,-0.45614c-0.17645,-0.34063 -0.17645,-0.34063 -0.17645,-0.47761z" id="Path 1" fill="#fefefe"/><path d="M724.6255,146.5196c0.13016,0.00049 0.26033,0.00099 0.39444,0.00149c0.13639,-0.00002 0.27278,-0.00004 0.41331,-0.00006c0.45305,0.0001 0.90609,0.00116 1.35914,0.00223c0.31324,0.00026 0.62647,0.00045 0.93971,0.00059c0.82616,0.00052 1.65232,0.00187 2.47847,0.00338c0.84234,0.0014 1.68469,0.00203 2.52703,0.00272c1.65406,0.00147 3.30811,0.00381 4.96216,0.00669c-0.23134,0.61213 -0.50053,1.19443 -0.81549,1.77761c-0.0735,0.1376 -0.0735,0.1376 -0.14849,0.27799c-0.10596,0.19835 -0.21213,0.39661 -0.31847,0.59481c-0.28972,0.54014 -0.57773,1.08095 -0.86551,1.62185c-0.05951,0.11184 -0.11902,0.22368 -0.18033,0.33891c-0.54992,1.03578 -1.08557,2.07681 -1.6189,3.119c-1.04269,2.0375 -2.11718,4.06102 -3.20794,6.0797c-1.03467,1.91541 -2.04357,3.83845 -3.0131,5.77917c-0.26215,0 -0.5243,0 -0.79439,0c0.07373,-0.15681 0.07373,-0.15681 0.14895,-0.31678c0.1178,-0.2569 0.22637,-0.51703 0.32769,-0.77911c-0.67124,0.2067 -0.89847,0.59264 -1.27103,1.09589c-0.37913,0.16344 -0.6627,0.17338 -1.08546,0.20066c-0.15309,0.01068 -0.30618,0.02137 -0.46391,0.03237c-0.32227,0.02146 -0.64458,0.04251 -0.96692,0.06314c-0.23056,0.01629 -0.23056,0.01629 -0.46577,0.03291c-0.21038,0.01376 -0.21038,0.01376 -0.42501,0.02779c-0.48503,0.06461 -1.00193,0.15693 -1.35927,0.46504c-0.25359,0.01279 -0.50783,0.01609 -0.76185,0.01555c-0.16221,-0.00001 -0.32442,-0.00002 -0.49155,-0.00003c-0.17642,-0.00071 -0.35284,-0.00141 -0.5346,-0.00214c-0.17963,-0.00019 -0.35925,-0.00039 -0.54432,-0.00059c-0.57634,-0.00077 -1.15267,-0.00249 -1.72901,-0.00423c-0.38965,-0.00069 -0.77929,-0.00131 -1.16894,-0.00187c-0.95752,-0.00151 -1.91502,-0.00381 -2.87254,-0.00669c0.08848,-0.4329 0.20011,-0.80971 0.41675,-1.20746c0.07902,-0.14658 0.07902,-0.14658 0.15963,-0.29613c0.0572,-0.1042 0.1144,-0.2084 0.17333,-0.31576c0.08913,-0.16484 0.08913,-0.16484 0.18006,-0.33302c0.12689,-0.23459 0.25414,-0.46903 0.38173,-0.70334c0.33039,-0.60697 0.65801,-1.21505 0.98541,-1.82323c0.06388,-0.11859 0.12775,-0.23717 0.19357,-0.35935c0.52102,-0.96988 1.02184,-1.94611 1.497,-2.9334c0.43933,-0.90928 0.92583,-1.79878 1.41159,-2.69006c0.54383,-0.99952 1.08216,-2.00126 1.62137,-3.00263c0.06567,-0.12193 0.13135,-0.24386 0.19902,-0.36949c0.92875,-1.72548 1.84341,-3.45543 2.72794,-5.19812c0.07,-0.1376 0.14001,-0.27521 0.21214,-0.41698c0.05983,-0.11849 0.11966,-0.23698 0.1813,-0.35905c0.28171,-0.51617 0.58163,-0.41897 1.21107,-0.41998z" id="Path 1" fill="#fefefe"/><path d="M650.31659,146.53664c4.61383,0 9.22766,0 13.98131,0c-0.30854,0.79807 -0.61309,1.53548 -1.02464,2.28863c-0.05231,0.09725 -0.10462,0.19449 -0.15852,0.29469c-0.11238,0.20885 -0.22509,0.41757 -0.33808,0.62617c-0.30666,0.56634 -0.6107,1.13373 -0.91469,1.70114c-0.0624,0.11641 -0.1248,0.23281 -0.18909,0.35275c-0.61564,1.15105 -1.21073,2.30967 -1.80371,3.46949c-0.98835,1.93151 -2.00997,3.84866 -3.04435,5.76214c-0.86664,1.60351 -1.71772,3.21094 -2.53118,4.83514c-0.06271,0.12499 -0.12542,0.24998 -0.19003,0.37875c-0.05317,0.10701 -0.10634,0.21402 -0.16113,0.32427c-0.13056,0.2408 -0.13056,0.2408 -0.28944,0.37778c-0.29739,0.01286 -0.59535,0.01609 -0.89311,0.01555c-0.19084,-0.00001 -0.38168,-0.00002 -0.5783,-0.00003c-0.2077,-0.00071 -0.41539,-0.00141 -0.62938,-0.00214c-0.2135,-0.00026 -0.427,-0.00045 -0.6405,-0.00059c-0.56288,-0.00052 -1.12575,-0.00187 -1.68862,-0.00338c-0.57399,-0.0014 -1.14798,-0.00203 -1.72198,-0.00272c-1.12694,-0.00147 -2.25388,-0.00381 -3.38082,-0.00669c0.09766,-0.45131 0.20702,-0.80586 0.46671,-1.20719c0.33201,-0.54649 0.49579,-1.06735 0.64544,-1.66952c-0.918,0.13514 -1.2659,0.54431 -1.79793,1.15101c-0.2792,0.34971 -0.2792,0.34971 -0.4605,0.74165c-0.21417,0.41475 -0.36444,0.68118 -0.76026,0.98405c-0.86697,0.11951 -1.67225,0.08016 -2.54206,0c0.20268,-0.66556 0.45756,-1.25739 0.80432,-1.88035c0.10019,-0.1816 0.20031,-0.36322 0.30038,-0.54487c0.05294,-0.09556 0.10588,-0.19112 0.16043,-0.28957c0.28744,-0.52142 0.56838,-1.04544 0.84994,-1.56924c0.12165,-0.22593 0.24331,-0.45185 0.36496,-0.67777c2.76327,-5.13033 2.76327,-5.13033 5.41789,-10.30287c0.52141,-1.04098 1.07223,-2.06649 1.63479,-3.09149c0.55051,-1.01712 0.55051,-1.01712 1.11215,-2.05479z" id="Path 1" fill="#fefefe"/><path d="M697.66238,176.53664c4.45654,0 8.91308,0 13.50467,0c0,6.78082 0,13.56164 0,20.54795c-4.45654,0 -8.91308,0 -13.50467,0c0,-6.78082 0,-13.56164 0,-20.54795z" id="Path 1" fill="#ffffff"/><path d="M624.26051,176.53664c4.45654,0 8.91308,0 13.50467,0c0,6.78082 0,13.56164 0,20.54795c-4.45654,0 -8.91308,0 -13.50467,0c0,-6.78082 0,-13.56164 0,-20.54795z" id="Path 1" fill="#ffffff"/><path d="M624.26051,146.39965c4.45654,0 8.91308,0 13.50467,0c0,6.78082 0,13.56164 0,20.54795c-4.45654,0 -8.91308,0 -13.50467,0c0,-6.78082 0,-13.56164 0,-20.54795z" id="Path 1" fill="#ffffff"/><path d="M671.44743,176.53664c4.40411,0 8.80822,0 13.34579,0c0,6.78082 0,13.56164 0,20.54795c-4.40411,0 -8.80822,0 -13.34579,0c0,-6.78082 0,-13.56164 0,-20.54795z" id="Path 1" fill="#ffffff"/><path d="M671.44743,146.39965c4.40411,0 8.80822,0 13.34579,0c0,6.78082 0,13.56164 0,20.54795c-4.40411,0 -8.80822,0 -13.34579,0c0,-6.78082 0,-13.56164 0,-20.54795z" id="Path 1" fill="#ffffff"/><path d="M697.66238,146.39965c4.45654,0 8.91308,0 13.50467,0c0,6.78082 0,13.56164 0,20.54795c-3.93224,0 -7.86449,0 -11.91589,0c0.15155,-0.52268 0.28571,-0.72931 0.64544,-1.14726c0.40592,-0.50535 0.57913,-0.82543 0.46671,-1.45548c-1.02466,0.07573 -1.48014,0.71012 -2.10514,1.34418c-0.07946,0.08282 -0.15893,0.16564 -0.2408,0.25096c-0.06472,0.06127 -0.12944,0.12255 -0.19612,0.18568c-0.05243,0 -0.10486,0 -0.15888,0c0,-6.50959 0,-13.01918 0,-19.72603z" id="Path 1" fill="#fefefe"/><path d="M700.16472,164.25069c0.17695,0.04662 0.17695,0.04662 0.35748,0.09418c0.14894,0.8738 -0.34878,1.36364 -0.91355,2.03767c-0.09256,0.11349 -0.18512,0.22698 -0.28048,0.3439c-0.76847,0.93624 -1.56393,1.85524 -2.37142,2.76665c-0.36899,0.41895 -0.70924,0.84928 -1.04202,1.29013c0.07107,-0.06445 0.14213,-0.12891 0.21535,-0.19531c0.8131,-0.72198 1.46037,-1.22395 2.65563,-1.32117c0.4725,0.01484 0.74193,0.16565 1.10098,0.42059c0.36385,0.47058 0.34611,0.68292 0.31776,1.23288c1.88607,-0.20897 1.88607,-0.20897 3.39789,-1.14779c0.40469,-0.35061 0.74852,-0.48742 1.31882,-0.52172c0.36741,0.02568 0.36741,0.02568 0.52629,0.16267c0.09009,0.55671 0.03091,0.78073 -0.32769,1.25856c-0.59125,0.54867 -1.2606,0.78126 -2.125,0.82192c-0.20153,-0.01271 -0.20153,-0.01271 -0.40713,-0.02568c-0.31742,0.56446 -0.34609,1.02081 -0.31776,1.64383c1.61762,0.09962 2.53101,-0.49258 3.7535,-1.35863c0.33137,-0.25047 0.63875,-0.50762 0.94334,-0.78178c0.76936,-0.68862 1.76955,-1.399 2.89953,-1.44692c0.5498,0.00432 0.96211,0.08514 1.4597,0.29966c0.06328,-0.05933 0.12657,-0.11866 0.19177,-0.17979c0.08417,-0.07628 0.16835,-0.15257 0.25507,-0.23116c0.08295,-0.07628 0.16589,-0.15257 0.25135,-0.23116c0.25507,-0.17979 0.25507,-0.17979 0.73171,-0.17979c-0.0922,0.47138 -0.23028,0.85953 -0.47601,1.28746c-0.06257,0.11089 -0.12514,0.22179 -0.1896,0.33604c-0.06543,0.11407 -0.13087,0.22815 -0.19829,0.34568c-0.8489,1.47613 -0.8489,1.47613 -1.04264,3.09931c0.37258,0.11504 0.57436,0.15405 0.95575,0.04762c2.10416,-1.0435 3.87889,-2.76705 5.08163,-4.56817c0.20972,0.04521 0.41944,0.09041 0.63551,0.13699c-0.1839,0.42283 -0.39626,0.82329 -0.63551,1.22431c-0.50502,0.81238 -0.50502,0.81238 -0.57593,1.70377c0.03277,0.07346 0.06554,0.14692 0.0993,0.2226c1.49364,-0.75949 2.52297,-1.89379 3.4885,-3.10841c0.10711,-0.10436 0.21423,-0.20872 0.32458,-0.31625c0.20972,0 0.41944,0 0.63551,0c-0.09955,0.49713 -0.26069,0.9359 -0.47664,1.40411c-0.29736,0.68462 -0.42128,1.29275 -0.47664,2.02055c1.3372,-0.30455 2.44797,-1.02072 3.20271,-2.0259c0.35252,-0.53618 0.64965,-1.09269 0.93776,-1.65634c0.2032,-0.39529 0.41823,-0.78552 0.63257,-1.17639c0.21243,-0.38848 0.42076,-0.77854 0.62884,-1.16876c-0.27034,0.02967 -0.27034,0.02967 -0.54614,0.05993c-0.24162,0.02572 -0.48325,0.0514 -0.72488,0.07705c-0.11817,0.01307 -0.23634,0.02613 -0.3581,0.0396c-0.78724,0.08263 -1.54978,0.10982 -2.34284,0.09739c0.05243,-0.18082 0.10486,-0.36164 0.15888,-0.54794c1.48102,-0.16691 2.95825,-0.31848 4.4486,-0.41096c0.04547,-0.10648 0.09093,-0.21296 0.13778,-0.32267c0.19989,-0.40235 0.44121,-0.61977 0.81549,-0.91021c0.15729,0.04521 0.31458,0.09041 0.47664,0.13699c-0.17866,0.40711 -0.35318,0.73074 -0.63551,1.09589c0.20429,-0.00715 0.20429,-0.00715 0.41271,-0.01445c1.05167,-0.02147 1.83861,-0.02033 2.76486,0.42541c-0.05243,0.18082 -0.10486,0.36164 -0.15888,0.54794c-0.13602,-0.06698 -0.13602,-0.06698 -0.27478,-0.13531c-0.38712,-0.1488 -0.6281,-0.17059 -1.04838,-0.16541c-0.19047,0.00132 -0.19047,0.00132 -0.38478,0.00268c-0.13107,0.0023 -0.26215,0.00459 -0.3972,0.00696c-0.2003,0.00185 -0.2003,0.00185 -0.40464,0.00375c-0.32853,0.00322 -0.65704,0.00813 -0.98554,0.01338c-2.93837,4.37646 -2.93837,4.37646 -3.57477,9.22945c0.02621,0.07346 0.05243,0.14692 0.07944,0.2226c-0.38727,-0.05137 -0.38727,-0.05137 -0.79439,-0.13699c-0.53617,-0.92459 0.02902,-2.06001 0.33762,-2.98694c0.15301,-0.40612 0.15301,-0.40612 0.13902,-0.71169c-0.08848,0.05774 -0.17695,0.11549 -0.26811,0.17498c-0.82219,0.50892 -1.40811,0.79916 -2.43283,0.78393c-0.35376,-0.21938 -0.46131,-0.35254 -0.55794,-0.72078c-0.01382,-0.16449 -0.01382,-0.16449 -0.02793,-0.3323c-0.01045,-0.11072 -0.02089,-0.22144 -0.03165,-0.33551c-0.00891,-0.12635 -0.00891,-0.12635 -0.018,-0.25524c-0.09032,0.08264 -0.18064,0.16528 -0.27369,0.25043c-1.3322,1.1889 -1.3322,1.1889 -2.26836,1.53039c-0.67985,-0.03823 -0.67985,-0.03823 -0.95327,-0.27397c-0.0584,-0.31893 -0.1116,-0.63861 -0.15888,-0.9589c-0.15883,0.14648 -0.15883,0.14648 -0.32086,0.29591c-2.27946,2.06005 -2.27946,2.06005 -3.87949,2.34107c-0.566,-0.03425 -0.566,-0.03425 -0.9632,-0.29966c-0.5743,-1.01097 -0.12594,-2.00527 0.23832,-3.02226c-0.12657,0.11231 -0.25314,0.22461 -0.38354,0.34033c-0.17001,0.14915 -0.34006,0.29827 -0.51015,0.44735c-0.08295,0.07381 -0.16589,0.14762 -0.25135,0.22367c-0.52979,0.46243 -1.05457,0.85584 -1.71477,1.18044c-0.52629,-0.01712 -0.52629,-0.01712 -0.95327,-0.13699c-0.25536,-0.44034 -0.16801,-0.88166 -0.15888,-1.36986c-0.13804,0.08582 -0.27608,0.17164 -0.4183,0.26006c-0.1849,0.11314 -0.36985,0.22622 -0.55483,0.33925c-0.13579,0.08476 -0.13579,0.08476 -0.27431,0.17123c-0.90799,0.55157 -1.75007,0.8429 -2.8834,0.7363c-0.43744,-0.24598 -0.71913,-0.41816 -0.95327,-0.82192c0.01365,-0.28681 0.01365,-0.28681 0.05958,-0.61644c0.0215,-0.16316 0.0215,-0.16316 0.04344,-0.32962c0.05586,-0.28681 0.05586,-0.28681 0.21473,-0.56079c-0.9908,-0.02796 -0.9908,-0.02796 -1.85069,0.32588c-0.14737,0.16415 -0.29142,0.33055 -0.43257,0.49872c-0.65461,0.68623 -1.66308,1.23414 -2.64198,1.50417c-0.60572,-0.05137 -0.60572,-0.05137 -1.11215,-0.13699c-0.11916,-0.29966 -0.11916,-0.29966 -0.15888,-0.68493c0.44692,-0.60609 0.99033,-0.89374 1.7278,-1.19007c0.09523,-0.04035 0.19047,-0.0807 0.28859,-0.12227c0.58611,-0.24391 1.17552,-0.43923 1.79669,-0.60547c0.0265,-0.39952 0.0265,-0.39952 0,-0.82192c-0.29929,-0.31847 -0.29929,-0.31847 -0.79439,-0.29966c-1.09624,0.17132 -1.92292,1.04183 -2.55074,1.77868c-0.27548,0.36903 -0.53471,0.74198 -0.7857,1.12372c-0.10353,0.15283 -0.10353,0.15283 -0.20915,0.30875c-0.14483,0.21538 -0.28614,0.43252 -0.42637,0.65015c-0.15729,-0.04521 -0.31458,-0.09041 -0.47664,-0.13699c0.07185,-1.0455 0.40259,-1.89503 0.8639,-2.85959c0.10645,-0.22481 0.10645,-0.22481 0.21504,-0.45417c3.0293,-6.28061 3.0293,-6.28061 4.91872,-6.09549z" id="Path 1" fill="#312b2c"/><path d="M644.86507,164.0452c0.12124,0.00848 0.24249,0.01695 0.36741,0.02568c-0.08683,1.94641 -1.72623,3.74531 -3.31659,5.04281c-0.54855,0.44848 -0.84362,0.93527 -1.13201,1.53253c-0.06554,0.13562 -0.13107,0.27123 -0.1986,0.41096c-0.03932,0.09041 -0.07864,0.18082 -0.11916,0.27397c1.41305,-0.41535 2.57042,-1.28549 3.66414,-2.14041c0.15401,-0.10736 0.30803,-0.21473 0.46671,-0.32534c0.23593,0.06781 0.23593,0.06781 0.47664,0.13699c-0.07977,0.68154 -0.66824,0.96901 -1.24605,1.37756c-0.90534,0.62489 -1.88162,1.13671 -2.88479,1.63614c1.12893,0.35216 2.14571,0.45564 3.27687,0.05137c0.9679,-0.41873 1.77403,-0.96393 2.5222,-1.63527c0.68797,-0.60803 1.37843,-1.12128 2.38318,-1.19863c0.13107,0.01413 0.26215,0.02825 0.3972,0.04281c0.11916,0.2911 0.11916,0.2911 0.15888,0.68493c-0.4207,0.75701 -1.05261,1.149 -1.90654,1.50685c-0.20348,0.05369 -0.40874,0.10272 -0.61565,0.14555c-0.50109,0.08647 -0.50109,0.08647 -0.73481,0.37671c-0.09851,0.37159 -0.04579,0.62141 0.07944,0.98459c0.05243,0.04521 0.10486,0.09041 0.15888,0.13699c1.62129,0 2.75758,-0.70674 3.88259,-1.66952c0.18958,-0.17335 0.37828,-0.34742 0.566,-0.52226c0.10978,-0.092 0.21955,-0.184 0.33265,-0.27879c0.33499,-0.27946 0.33499,-0.27946 0.63055,-0.71436c0.15237,-0.18647 0.15237,-0.18647 0.30783,-0.37671c0.15729,0 0.31458,0 0.47664,0c-0.09648,0.51966 -0.27696,0.93303 -0.54614,1.40411c-0.36576,0.67174 -0.57243,1.29161 -0.72488,2.02055c1.80843,-0.89261 3.02907,-2.29897 4.28972,-3.69863c0.15729,0.04521 0.31458,0.09041 0.47664,0.13699c-0.09461,0.4801 -0.24548,0.88375 -0.47664,1.32705c-0.33528,0.69653 -0.43965,1.34813 -0.47664,2.0976c1.73555,-0.43532 2.74077,-1.43987 3.65421,-2.73973c0.12479,-0.16324 0.25044,-0.32599 0.37734,-0.48801c0.0852,-0.11019 0.1704,-0.22038 0.25818,-0.3339c0.15729,0.04521 0.31458,0.09041 0.47664,0.13699c-0.05243,0.22603 -0.10486,0.45205 -0.15888,0.68493c0.12452,-0.09041 0.24904,-0.18082 0.37734,-0.27397c0.67218,-0.38499 1.38539,-0.40859 2.16472,-0.27397c0.41706,0.30822 0.41706,0.30822 0.63551,0.68493c0,0.18082 0,0.36164 0,0.54795c0.78645,-0.09041 1.5729,-0.18082 2.38318,-0.27397c0,0.18082 0,0.36164 0,0.54795c-0.16282,0.02172 -0.32564,0.04344 -0.49339,0.06582c-0.21621,0.03214 -0.43239,0.06443 -0.64855,0.09685c-0.10701,0.01386 -0.21402,0.02772 -0.32427,0.04201c-0.81208,0.12637 -1.17568,0.36404 -1.71136,0.89121c-0.23425,0.17257 -0.47241,0.3413 -0.71495,0.50514c-0.11633,0.07964 -0.23266,0.15928 -0.35251,0.24133c-0.62092,0.36394 -1.00749,0.49907 -1.76256,0.43504c-0.16712,-0.02825 -0.33424,-0.05651 -0.50643,-0.08562c-0.07944,-0.35959 -0.07944,-0.35959 0,-0.82192c0.82994,-0.84223 2.16643,-1.1593 3.33645,-1.50685c-0.05243,-0.22603 -0.10486,-0.45205 -0.15888,-0.68493c-0.58313,-0.07332 -0.92803,-0.09963 -1.43549,0.17498c-1.86499,1.36634 -2.74755,3.13432 -3.45002,5.10756c-0.04668,0.13112 -0.09337,0.26225 -0.14146,0.39735c-0.30321,0.88381 -0.52248,1.76657 -0.69265,2.67628c-0.20972,0 -0.41944,0 -0.63551,0c0.03084,-1.35376 0.44428,-2.52439 0.9632,-3.78425c0.11281,-0.27911 0.225,-0.5584 0.33678,-0.83782c0.10035,-0.25003 0.20231,-0.49958 0.30436,-0.7491c0.15961,-0.35876 0.15961,-0.35876 0.14332,-0.65624c-0.15729,0.11019 -0.31458,0.22038 -0.47664,0.3339c-0.64281,0.39652 -1.11916,0.4767 -1.90654,0.48801c-0.47664,-0.27397 -0.47664,-0.27397 -0.55235,-0.53564c-0.00778,-0.0973 -0.01557,-0.1946 -0.02358,-0.29484c0.01093,-0.50767 0.01093,-0.50767 -0.21846,-0.67637c-0.07885,0.07275 -0.1577,0.14551 -0.23894,0.22046c-0.66625,0.59734 -1.25702,1.09141 -2.14424,1.42337c-0.44685,-0.00856 -0.44685,-0.00856 -0.79439,-0.13699c-0.38599,-0.4992 -0.34346,-0.78252 -0.31776,-1.36986c-0.09994,0.07275 -0.19989,0.14551 -0.30286,0.22046c-1.24332,0.88473 -2.45576,1.68597 -4.14574,1.56036c-0.45678,-0.21404 -0.45678,-0.21404 -0.79439,-0.54795c-0.12909,-0.5137 -0.12909,-0.5137 -0.15888,-0.9589c-0.09585,0.03797 -0.1917,0.07593 -0.29045,0.11505c-0.12698,0.04962 -0.25396,0.09924 -0.38478,0.15036c-0.12534,0.04927 -0.25068,0.09853 -0.37982,0.14929c-1.49868,0.5327 -3.01034,0.27823 -4.50569,-0.14073c-0.38578,0.79829 -0.41583,1.61312 -0.47664,2.46575c-0.20972,0 -0.41944,0 -0.63551,0c-0.0158,-0.83711 -0.01133,-1.64028 0.15888,-2.46575c-0.14091,0.13279 -0.28181,0.26558 -0.42699,0.4024c-0.90815,0.77824 -2.17454,1.76543 -3.47547,1.96918c-0.54614,-0.04281 -0.54614,-0.04281 -0.94334,-0.23116c-0.4253,-0.64172 -0.33283,-1.26605 -0.12971,-1.96757c0.08362,-0.23838 0.17127,-0.47575 0.26376,-0.71169c0.12029,-0.27709 0.12029,-0.27709 0.10426,-0.55704c-0.08848,0.08935 -0.17695,0.1787 -0.26811,0.27076c-1.8093,1.78662 -1.8093,1.78662 -2.9889,2.04088c-0.13107,0.00565 -0.26215,0.0113 -0.3972,0.01712c-0.29048,-0.28642 -0.46514,-0.47056 -0.52194,-0.85295c0.12019,-1.11626 0.62122,-1.98393 1.55465,-2.76862c0.85849,-0.46262 1.42921,-0.70455 2.46262,-0.625c0.54614,0.13699 0.54614,0.13699 0.95327,0.27397c0.26215,-0.27123 0.5243,-0.54247 0.79439,-0.82192c0.20972,0.04521 0.41944,0.09041 0.63551,0.13699c-0.2732,0.78519 -0.68883,1.47832 -1.12456,2.20248c-0.44537,0.75081 -0.83214,1.43882 -0.80184,2.30094c0.0043,0.16051 0.0043,0.16051 0.00869,0.32427c0.00369,0.07946 0.00737,0.15893 0.01117,0.2408c1.57929,-0.13997 2.77743,-1.22061 3.81308,-2.19178c0.08909,-0.07469 0.17818,-0.14939 0.26997,-0.22635c0.80595,-0.71364 1.2634,-1.54968 1.75821,-2.43579c2.93121,-5.22778 2.93121,-5.22778 4.27731,-5.30875z" id="Path 1" fill="#302b2b"/><path d="M767.7278,164.20787c0.31458,0.13562 0.31458,0.13562 0.63551,0.27397c-0.08613,0.6684 -0.33308,1.18977 -0.70502,1.77226c-0.05489,0.0881 -0.10978,0.17621 -0.16633,0.26698c-0.48854,0.76663 -1.04647,1.48877 -1.64677,2.19365c-0.43279,0.52778 -0.58267,0.87459 -0.50057,1.52053c-0.15729,0.04521 -0.31458,0.09041 -0.47664,0.13699c-0.02109,0.10913 -0.04219,0.21826 -0.06392,0.33069c-0.25383,1.31314 -0.25383,1.31314 -0.34258,1.71768c-0.07885,0.46925 -0.09118,0.91936 -0.08999,1.39341c-0.00041,0.16422 -0.00082,0.32845 -0.00124,0.49765c0.01711,0.3602 0.0559,0.65077 0.17998,0.99208c-0.20972,0 -0.41944,0 -0.63551,0c-0.80857,-1.12872 -0.29132,-2.88509 0,-4.10959c-0.09032,0.10913 -0.18064,0.21826 -0.27369,0.33069c-1.50118,1.77619 -1.50118,1.77619 -2.26836,2.13506c-0.60572,0.06849 -0.60572,0.06849 -1.11215,0c-0.43886,-0.37839 -0.40968,-0.7133 -0.47664,-1.23288c-0.10773,0.09924 -0.21545,0.19848 -0.32645,0.30073c-1.02633,0.92688 -2.11081,1.90403 -3.62566,2.17359c-0.4965,-0.00856 -0.4965,-0.00856 -0.87383,-0.17979c-0.41412,-0.38452 -0.46868,-0.78915 -0.46484,-1.30137c0.10467,-0.67512 0.41172,-1.31544 0.6833,-1.95205c-0.06322,0.05594 -0.12644,0.11189 -0.19158,0.16953c-0.28945,0.2553 -0.58017,0.5095 -0.87092,0.76369c-0.09943,0.08803 -0.19886,0.17605 -0.30131,0.26675c-0.99228,0.86451 -0.99228,0.86451 -1.65488,1.1288c-0.51636,-0.02568 -0.51636,-0.02568 -0.95327,-0.13699c-0.25536,-0.44034 -0.16801,-0.88166 -0.15888,-1.36986c-0.14766,0.09412 -0.29533,0.18824 -0.44747,0.28521c-0.19835,0.12473 -0.39674,0.2494 -0.59517,0.37404c-0.09677,0.06189 -0.19354,0.12379 -0.29324,0.18755c-0.97578,0.60985 -1.87407,1.02467 -3.10961,0.98111c-0.32086,-0.04709 -0.32086,-0.04709 -0.71806,-0.26113c-0.30515,-0.42753 -0.35293,-0.79666 -0.3972,-1.29281c-0.08295,0.07787 -0.16589,0.15575 -0.25135,0.23598c-1.00243,0.90668 -2.15599,1.87169 -3.63124,2.12703c-0.566,-0.03425 -0.566,-0.03425 -0.9632,-0.30822c-0.57067,-0.98407 -0.08251,-2.01095 0.23832,-3.0137c-0.12657,0.11231 -0.25314,0.22461 -0.38354,0.34033c-0.17001,0.14915 -0.34006,0.29827 -0.51015,0.44735c-0.08295,0.07381 -0.16589,0.14762 -0.25135,0.22367c-0.52979,0.46243 -1.05457,0.85584 -1.71477,1.18044c-0.52629,-0.01712 -0.52629,-0.01712 -0.95327,-0.13699c-0.29898,-0.51557 -0.23911,-1.08237 -0.15888,-1.64384c0.41553,-1.03463 1.30045,-1.80403 2.38318,-2.35285c0.68142,-0.24212 1.38647,-0.17105 2.06542,0.02408c0.10486,0.04521 0.20972,0.09041 0.31776,0.13699c0.06328,-0.05933 0.12657,-0.11866 0.19177,-0.17979c0.08417,-0.07628 0.16835,-0.15257 0.25507,-0.23116c0.08295,-0.07628 0.16589,-0.15257 0.25135,-0.23116c0.25507,-0.17979 0.25507,-0.17979 0.73171,-0.17979c-0.08179,0.69772 -0.37297,1.21004 -0.77453,1.80651c-0.67298,1.04192 -1.17211,2.04764 -1.13201,3.26199c0.37258,0.11504 0.57436,0.15405 0.95575,0.04762c1.83534,-0.91018 3.31077,-2.39239 4.66007,-3.7795c0.5876,-0.5385 1.21775,-0.89035 2.06992,-0.98559c0.41706,0.05993 0.41706,0.05993 0.73481,0.3339c0.05011,0.59403 0.07133,0.86665 -0.31776,1.36986c-0.15729,0 -0.31458,0 -0.47664,0c0.05243,-0.36164 0.10486,-0.72329 0.15888,-1.09589c-1.16173,0.32707 -1.83576,0.9388 -2.45269,1.84075c-0.13429,0.52746 -0.11382,1.04629 -0.08937,1.5839c1.52381,0.14598 2.47345,-0.54909 3.63435,-1.32705c0.70943,-0.49976 1.3821,-1.03185 2.0399,-1.58133c0.65296,-0.53321 1.34582,-0.99153 2.27961,-0.97004c0.55616,0.03806 0.9263,0.10395 1.41998,0.31678c0.06328,-0.05933 0.12657,-0.11866 0.19177,-0.17979c0.08417,-0.07628 0.16835,-0.15257 0.25507,-0.23116c0.08295,-0.07628 0.16589,-0.15257 0.25135,-0.23116c0.25507,-0.17979 0.25507,-0.17979 0.73171,-0.17979c-0.08674,0.72861 -0.38229,1.25756 -0.77453,1.89212c-0.92539,1.50692 -0.92539,1.50692 -1.13201,3.17637c0.40996,0.13487 0.58325,0.15524 0.9966,0.0109c0.995,-0.52639 1.80091,-1.11823 2.60796,-1.84309c0.11234,-0.09818 0.22467,-0.19636 0.34041,-0.29752c0.63881,-0.56246 1.24927,-1.1401 1.83835,-1.74156c0.59119,-0.55455 1.14822,-0.89248 2.02966,-0.96446c0.4703,-0.00143 0.93311,0.01088 1.40198,0.0412c0.07885,-0.16722 0.1577,-0.33445 0.23894,-0.50674c1.69471,-3.55683 1.69471,-3.55683 2.93863,-4.56175z" id="Path 1" fill="#2e2829"/><path d="M691.625,164.20787c0.31458,0.13562 0.31458,0.13562 0.63551,0.27397c-0.08613,0.6684 -0.33308,1.18977 -0.70502,1.77226c-0.05489,0.0881 -0.10978,0.17621 -0.16633,0.26698c-0.48854,0.76663 -1.04647,1.48877 -1.64677,2.19365c-0.43279,0.52778 -0.58267,0.87459 -0.50057,1.52053c-0.15729,0.04521 -0.31458,0.09041 -0.47664,0.13699c-0.10842,0.50191 -0.21358,1.00427 -0.31776,1.50685c-0.03277,0.15257 -0.06554,0.30514 -0.0993,0.46233c-0.11804,0.98381 -0.16354,1.99468 0.0993,2.96233c-0.20972,0 -0.41944,0 -0.63551,0c-0.38062,-0.50788 -0.36635,-1.00785 -0.35748,-1.59247c0.00061,-0.09694 0.00123,-0.19389 0.00186,-0.29377c0.01451,-0.76292 0.12507,-1.48505 0.35561,-2.22335c-0.15545,0.18091 -0.15545,0.18091 -0.31403,0.36548c-0.1402,0.16075 -0.28046,0.32145 -0.42078,0.48213c-0.06779,0.0792 -0.13558,0.1584 -0.20542,0.23999c-0.47721,0.54349 -0.95983,0.97681 -1.60182,1.37816c-0.59579,0.05993 -0.59579,0.05993 -1.11215,0c-0.31776,-0.27397 -0.31776,-0.27397 -0.34879,-0.54045c0.01034,-0.27647 0.02069,-0.55294 0.03103,-0.82941c-0.16057,0.09041 -0.32113,0.18082 -0.48657,0.27397c-0.5995,0.29297 -1.04337,0.36434 -1.73773,0.27397c-0.46189,-0.30392 -0.61006,-0.48212 -0.79439,-0.9589c-0.01102,-0.30523 -0.01344,-0.61073 -0.00993,-0.9161c0.00143,-0.16157 0.00287,-0.32315 0.00434,-0.48962c0.00184,-0.12379 0.00369,-0.24757 0.00559,-0.37511c-0.76584,0.44799 -1.10996,0.95579 -1.52921,1.64384c-0.73777,1.18626 -0.73777,1.18626 -1.17173,1.64384c-0.15729,-0.04521 -0.31458,-0.09041 -0.47664,-0.13699c-0.05243,-0.22603 -0.10486,-0.45205 -0.15888,-0.68493c-0.12288,0.10083 -0.24577,0.20166 -0.37237,0.30554c-2.51932,2.0456 -2.51932,2.0456 -4.07623,2.02322c-0.3972,-0.17979 -0.3972,-0.17979 -0.63551,-0.54795c-0.17749,-0.96568 0.10146,-1.83476 0.47664,-2.73973c-0.24312,-0.01606 -0.24312,-0.01606 -0.59828,0.37511c-0.27767,0.24464 -0.5542,0.49017 -0.82977,0.73657c-0.49317,0.43345 -0.94672,0.81458 -1.59065,1.08011c-0.42699,-0.01712 -0.42699,-0.01712 -0.79439,-0.13699c-0.40929,-0.52934 -0.34393,-0.7991 -0.25383,-1.4116c0.27072,-1.05267 0.98159,-1.82352 2.0015,-2.42402c0.63974,-0.30338 1.18203,-0.31859 1.90654,-0.27397c0.46671,0.13699 0.46671,0.13699 0.79439,0.27397c0.06144,-0.06092 0.12288,-0.12184 0.18619,-0.18461c0.08274,-0.07752 0.16548,-0.15504 0.25073,-0.23491c0.0811,-0.07787 0.16221,-0.15575 0.24577,-0.23598c0.27059,-0.16642 0.27059,-0.16642 0.62062,-0.12307c0.09421,0.0309 0.18842,0.0618 0.28548,0.09364c-0.34921,0.80292 -0.80426,1.56623 -1.24093,2.33572c-0.06257,0.11213 -0.12514,0.22426 -0.1896,0.33979c-0.05705,0.10109 -0.1141,0.20219 -0.17288,0.30635c-0.24604,0.52158 -0.32407,1.02175 -0.31306,1.5815c0.00328,0.1667 0.00655,0.33339 0.00993,0.50514c0.83566,-0.05851 1.34188,-0.3254 1.97605,-0.77055c0.09065,-0.06215 0.1813,-0.12429 0.2747,-0.18832c1.49811,-1.04031 2.74451,-2.21668 3.58989,-3.71953c0.23413,-0.30121 0.44687,-0.39347 0.83225,-0.52708c0.15888,0.41096 0.15888,0.41096 0,0.82192c0.09175,-0.07063 0.1835,-0.14127 0.27804,-0.21404c0.35748,-0.19692 0.35748,-0.19692 0.69509,-0.17123c0.2979,0.1113 0.2979,0.1113 0.61565,0.38527c0.04399,0.31555 0.07151,0.6329 0.08937,0.95034c0.03749,0.70156 0.03749,0.70156 0.22839,1.37842c1.00835,0 1.47271,-0.33653 2.19327,-0.92305c0.32434,-0.28811 0.62599,-0.5842 0.92472,-0.89202c0.49244,-0.49132 0.91906,-0.86496 1.64836,-1.06164c0.33002,-0.01391 0.66076,-0.01748 0.99113,-0.01284c0.25723,0.00278 0.25723,0.00278 0.51965,0.00562c0.1306,0.00238 0.2612,0.00477 0.39576,0.00722c0.0423,-0.0917 0.08461,-0.1834 0.1282,-0.27789c1.92326,-4.14331 1.92326,-4.14331 3.04937,-4.79061z" id="Path 1" fill="#2d2828"/><path d="M777.89603,168.72842c0.27401,0.69236 -0.00166,1.1742 -0.28797,1.82363c-0.48702,1.16733 -0.71119,2.28596 -0.82418,3.51884c0.23593,0.06781 0.23593,0.06781 0.47664,0.13699c-0.05243,0.13562 -0.10486,0.27123 -0.15888,0.41096c-0.37734,-0.04281 -0.37734,-0.04281 -0.79439,-0.13699c-0.43815,-0.56666 -0.39715,-1.01269 -0.24972,-1.67594c0.09193,-0.33393 0.19359,-0.66443 0.29937,-0.99529c0.0339,-0.11178 0.06779,-0.22356 0.10271,-0.33872c0.20888,-0.66984 0.46571,-1.29099 0.80091,-1.92155c-0.10486,0 -0.20972,0 -0.31776,0c-0.0426,0.0807 -0.0852,0.1614 -0.12909,0.24454c-0.1905,0.30634 -0.39208,0.52003 -0.6653,0.77429c-0.36782,0.34958 -0.7084,0.70487 -1.02837,1.08733c-0.0681,0.08045 -0.13619,0.16089 -0.20636,0.24377c-0.13462,0.1603 -0.26711,0.32195 -0.3972,0.485c-0.34353,0.40558 -0.5412,0.57692 -1.10812,0.71868c-0.21658,0.00397 -0.21658,0.00397 -0.43754,0.00803c-0.28627,-0.24682 -0.18722,-0.57598 -0.1955,-0.90432c0.04993,-0.44801 0.20188,-0.85819 0.35437,-1.28746c-0.10732,0.14197 -0.21463,0.28395 -0.3252,0.43022c-0.14312,0.18767 -0.28627,0.37531 -0.42947,0.56293c-0.07045,0.09341 -0.14091,0.18683 -0.21349,0.28307c-0.3768,0.4921 -0.74566,0.92752 -1.25613,1.32652c-0.20972,-0.09041 -0.41944,-0.18082 -0.63551,-0.27397c0.05243,-0.36164 0.10486,-0.72329 0.15888,-1.09589c-0.13435,0.08423 -0.2687,0.16846 -0.40713,0.25524c-2.50306,1.54718 -2.50306,1.54718 -3.88259,1.38859c-0.73598,-0.31023 -0.73598,-0.31023 -0.95327,-0.68493c-0.14943,-1.03075 0.24641,-1.64512 0.95327,-2.46575c0.54386,-0.54913 1.12962,-1.07787 1.90654,-1.36986c0.51636,-0.03425 0.51636,-0.03425 0.95327,0c0.05243,0.04521 0.10486,0.09041 0.15888,0.13699c-0.02533,0.5678 -0.08964,0.88165 -0.4965,1.33562c-0.62271,0.42019 -1.23155,0.67393 -2.01577,0.77911c-0.36565,0.04851 -0.36565,0.04851 -0.55607,0.30822c-0.1357,0.39354 -0.1408,0.73032 -0.10923,1.1387c0.17631,0.17908 0.17631,0.17908 0.61565,0.19692c1.69096,-0.03852 3.10909,-1.3385 4.23929,-2.30569c0.24758,-0.23767 0.45048,-0.48655 0.65739,-0.75135c0.12083,-0.14109 0.24167,-0.28218 0.36617,-0.42755c0.15729,0 0.31458,0 0.47664,0c-0.09958,0.50161 -0.26128,0.94273 -0.48657,1.41267c-0.05755,0.12096 -0.1151,0.24192 -0.17439,0.36655c-0.04403,0.09094 -0.08807,0.18188 -0.13343,0.27558c0.09401,-0.12061 0.18801,-0.24121 0.28486,-0.36548c0.12677,-0.16074 0.25358,-0.32144 0.38044,-0.48213c0.06154,-0.0792 0.12309,-0.1584 0.1865,-0.23999c0.40627,-0.5124 0.8284,-0.96532 1.3725,-1.37816c0.36741,0.02568 0.36741,0.02568 0.63551,0.13699c-0.09639,0.58525 -0.25818,1.11265 -0.48657,1.66952c-0.24324,0.58994 -0.24324,0.58994 -0.30783,1.20719c0.0981,-0.11266 0.1962,-0.22532 0.29728,-0.3414c2.82503,-3.22025 2.82503,-3.22025 3.99244,-3.22025z" id="Path 1" fill="#2f292a"/><path d="M782.82126,169.55034c0.20972,0.04521 0.41944,0.09041 0.63551,0.13699c0.01554,0.65634 -0.04424,1.26948 -0.15888,1.91781c0.17613,-0.07911 0.35226,-0.15822 0.53373,-0.23973c0.23249,-0.1028 0.46502,-0.20553 0.69758,-0.30822c0.11592,-0.05227 0.23184,-0.10454 0.35127,-0.15839c0.11264,-0.04944 0.22528,-0.09889 0.34134,-0.14983c0.10317,-0.04591 0.20634,-0.09182 0.31264,-0.13913c0.3055,-0.1006 0.3055,-0.1006 0.94101,-0.1006c-0.04581,0.25715 -0.04581,0.25715 -0.15888,0.54795c-0.40667,0.20343 -0.79441,0.37472 -1.22138,0.53938c-1.55058,0.60703 -2.33927,1.21202 -3.01869,2.56849c-2.23283,4.23433 -2.23283,4.23433 -3.86273,5.24829c-0.42326,0.03746 -0.42326,0.03746 -0.79439,0c-0.15888,-0.13699 -0.15888,-0.13699 -0.16881,-0.625c0.3345,-2.31836 2.6548,-4.6957 4.60748,-6.16438c0.46463,-0.47345 0.54333,-0.96364 0.64544,-1.56678c-0.12995,0.12926 -0.12995,0.12926 -0.26252,0.26113c-2.48736,2.43423 -2.48736,2.43423 -3.63993,2.5214c-0.18023,-0.01413 -0.36046,-0.02825 -0.54614,-0.04281c-0.40706,-0.52646 -0.44204,-0.89963 -0.31776,-1.50685c0.76211,-1.85522 0.76211,-1.85522 1.42991,-2.46575c0.15729,0 0.31458,0 0.47664,0c-0.05208,0.56882 -0.24059,0.98448 -0.54614,1.48116c-0.39239,0.64437 -0.57776,1.22853 -0.72488,1.94349c0.90572,-0.28361 1.47104,-0.63677 2.13493,-1.23288c0.08872,-0.07791 0.17744,-0.15581 0.26884,-0.23608c0.77166,-0.69147 1.4292,-1.42947 2.04482,-2.22967z" id="Path 1" fill="#2f292a"/><path d="M730.0736,169.55034c0.20972,0.04521 0.41944,0.09041 0.63551,0.13699c0.01554,0.65634 -0.04424,1.26948 -0.15888,1.91781c0.24423,-0.12105 0.24423,-0.12105 0.49339,-0.24454c0.21612,-0.10409 0.4323,-0.20807 0.64855,-0.31196c0.10701,-0.05342 0.21402,-0.10683 0.32427,-0.16187c0.8107,-0.3853 0.8107,-0.3853 1.39174,-0.34273c0.10547,0.03373 0.21095,0.06746 0.31962,0.1022c-0.15888,0.41096 -0.15888,0.41096 -0.43133,0.54206c-0.1748,0.05801 -0.1748,0.05801 -0.35313,0.11719c-1.44425,0.51918 -2.78259,1.10921 -3.44071,2.38549c-0.07424,0.14026 -0.14848,0.28053 -0.22497,0.42504c-0.07813,0.14898 -0.15627,0.29796 -0.23677,0.45146c-1.99381,3.69585 -1.99381,3.69585 -3.57477,4.84589c-0.42699,0.04281 -0.42699,0.04281 -0.79439,0c-0.15888,-0.13699 -0.15888,-0.13699 -0.20232,-0.55597c0.05143,-0.63917 0.25538,-1.07606 0.57966,-1.64437c0.05699,-0.1013 0.11397,-0.20261 0.17269,-0.30698c0.88281,-1.51924 1.98959,-2.73513 3.42256,-3.89227c0.70445,-0.59202 0.95403,-1.13746 1.11153,-1.95657c-0.06072,0.05866 -0.12145,0.11732 -0.18401,0.17775c-0.28134,0.27019 -0.56498,0.5385 -0.8487,0.80683c-0.09544,0.09227 -0.19088,0.18453 -0.28921,0.27959c-0.75726,0.71196 -1.56107,1.40711 -2.70962,1.53548c-0.41706,-0.05993 -0.41706,-0.05993 -0.73481,-0.3339c-0.28297,-0.93191 0.12572,-1.72066 0.59579,-2.54281c0.08275,-0.14691 0.08275,-0.14691 0.16718,-0.29678c0.42249,-0.69775 0.42249,-0.69775 0.84707,-0.81834c0.09785,-0.01343 0.19569,-0.02686 0.2965,-0.0407c-0.09241,0.50581 -0.258,0.88104 -0.54614,1.32705c-0.41265,0.68382 -0.5993,1.33806 -0.72488,2.0976c1.9789,-0.67605 3.25674,-2.24472 4.4486,-3.69863z" id="Path 1" fill="#2e2929"/><path d="M630.77453,168.86541c-0.0583,0.93824 -0.32592,1.76096 -0.6648,2.64742c-0.26496,0.69356 -0.47167,1.32073 -0.45728,2.05292c0.00328,0.1667 0.00655,0.33339 0.00993,0.50514c0.15729,0.06781 0.15729,0.06781 0.31776,0.13699c0,0.13562 0,0.27123 0,0.41096c-0.26215,0 -0.5243,0 -0.79439,0c-0.44804,-0.57945 -0.39197,-1.25566 -0.26524,-1.91854c0.07094,-0.27302 0.15057,-0.54258 0.23545,-0.81262c0.04293,-0.14224 0.04293,-0.14224 0.08673,-0.28735c0.21285,-0.6938 0.45743,-1.37396 0.73745,-2.04998c-0.82147,0.76565 -1.57956,1.55996 -2.30335,2.39469c-0.36722,0.42043 -0.73017,0.82105 -1.19198,1.16696c-0.43692,0.03425 -0.43692,0.03425 -0.79439,0c-0.28724,-0.83303 0.02597,-1.52995 0.31776,-2.32877c-0.05045,0.06839 -0.10089,0.13679 -0.15287,0.20725c-0.22976,0.31083 -0.46046,0.62114 -0.69118,0.93145c-0.07936,0.10763 -0.15872,0.21526 -0.24049,0.32615c-0.07731,0.10374 -0.15463,0.20749 -0.23428,0.31437c-0.07072,0.09541 -0.14144,0.19082 -0.21431,0.28912c-0.211,0.25613 -0.41172,0.46954 -0.69118,0.67139c-0.34755,-0.04281 -0.34755,-0.04281 -0.63551,-0.13699c0.05259,-1.29237 0.59698,-2.6214 1.42991,-3.69863c0.20972,0 0.41944,0 0.63551,0c-0.09589,0.52743 -0.28085,0.93986 -0.566,1.41267c-0.0723,0.12096 -0.14459,0.24192 -0.21908,0.36655c-0.08325,0.13641 -0.08325,0.13641 -0.16819,0.27558c0.56838,-0.60323 1.09463,-1.2281 1.61982,-1.85948c0.28673,-0.3323 0.28673,-0.3323 0.60448,-0.60627c0.20972,0 0.41944,0 0.63551,0c-0.07249,0.78753 -0.21535,1.45921 -0.53684,2.19927c-0.12284,0.28511 -0.12284,0.28511 -0.09868,0.67744c0.05841,-0.06209 0.11682,-0.12418 0.17699,-0.18816c0.26862,-0.2855 0.53735,-0.57093 0.80607,-0.85637c0.09185,-0.09765 0.18371,-0.1953 0.27835,-0.29591c2.07114,-2.19941 2.07114,-2.19941 3.02831,-1.94724z" id="Path 1" fill="#2e2828"/><path d="M687.81192,169.82431c0,0.46626 -0.07392,0.54705 -0.38913,0.90646c-0.08243,0.09447 -0.16487,0.18894 -0.2498,0.28628c-0.08735,0.098 -0.1747,0.19601 -0.26469,0.29698c-0.08428,0.09694 -0.16855,0.19389 -0.25538,0.29377c-0.47552,0.54029 -0.94669,1.05862 -1.54193,1.50417c-0.44685,-0.02568 -0.44685,-0.02568 -0.79439,-0.13699c0.04491,-1.06473 0.49603,-1.80254 1.37591,-2.55405c0.74481,-0.54751 1.14862,-0.61214 2.11942,-0.59664z" id="Path 1" fill="#f1cdc6"/><path d="M763.91472,169.82431c0,0.46626 -0.07392,0.54705 -0.38913,0.90646c-0.08243,0.09447 -0.16487,0.18894 -0.2498,0.28628c-0.08735,0.098 -0.1747,0.19601 -0.26469,0.29698c-0.08428,0.09694 -0.16855,0.19389 -0.25538,0.29377c-0.47509,0.5398 -0.94044,1.06555 -1.54193,1.50417c-0.20972,0 -0.41944,0 -0.63551,0c-0.07199,-0.86903 0.03636,-1.4754 0.63551,-2.19178c0.89156,-0.78694 1.40769,-1.11654 2.70094,-1.09589z" id="Path 1" fill="#f3cfc8"/><path d="M672.71846,170.09828c0.10486,0.13562 0.20972,0.27123 0.31776,0.41096c-0.06922,0.0581 -0.13845,0.11619 -0.20977,0.17605c-0.48173,0.40906 -0.94324,0.81772 -1.36909,1.27087c-0.50713,0.52375 -1.11001,0.90593 -1.75759,1.29281c-0.10486,-0.04521 -0.20972,-0.09041 -0.31776,-0.13699c0.00539,-1.00378 0.31654,-1.59991 1.11215,-2.32877c0.76581,-0.58525 1.18725,-0.7488 2.2243,-0.68493z" id="Path 1" fill="#f2cec7"/><path d="M634.26986,170.09828c0.10486,0.13562 0.20972,0.27123 0.31776,0.41096c-0.34584,0.32956 -0.69403,0.65721 -1.04264,0.98459c-0.09677,0.09227 -0.19354,0.18453 -0.29324,0.27959c-0.61905,0.57893 -1.23896,1.0403 -2.00057,1.47555c-0.10486,-0.04521 -0.20972,-0.09041 -0.31776,-0.13699c0.04528,-1.07352 0.49409,-1.8044 1.38336,-2.55886c0.63299,-0.43613 1.12731,-0.56652 1.95309,-0.45484z" id="Path 1" fill="#f2cec7"/><path d="M710.37266,170.09828c0.10486,0.13562 0.20972,0.27123 0.31776,0.41096c-0.61752,0.63116 -1.25923,1.23972 -1.9264,1.83219c-0.12821,0.11407 -0.25642,0.22815 -0.38851,0.34568c-0.38568,0.28763 -0.69875,0.42737 -1.18042,0.56186c-0.06969,-0.85621 0.03351,-1.36554 0.63551,-2.05479c0.73358,-0.71359 1.3861,-1.22878 2.54206,-1.09589z" id="Path 1" fill="#f4d0c9"/><path d="M740.71846,170.09828c0.10486,0.04521 0.20972,0.09041 0.31776,0.13699c-0.09237,0.49024 -0.2999,0.72226 -0.70254,1.07128c-0.11059,0.09589 -0.22119,0.19177 -0.33513,0.29056c-0.11633,0.09871 -0.23266,0.19742 -0.35251,0.29912c-0.11387,0.09977 -0.22774,0.19954 -0.34506,0.30233c-0.11141,0.09553 -0.22283,0.19106 -0.33762,0.28949c-0.15199,0.13035 -0.15199,0.13035 -0.30705,0.26334c-0.35434,0.24682 -0.68679,0.36999 -1.11541,0.49758c-0.09673,-0.9341 0.09848,-1.46787 0.79439,-2.19178c0.77541,-0.66139 1.26356,-0.99913 2.38318,-0.9589z" id="Path 1" fill="#f4d0c9"/><path d="M754.85864,170.09828c0.10486,0.04521 0.20972,0.09041 0.31776,0.13699c-0.09237,0.49024 -0.2999,0.72226 -0.70254,1.07128c-0.11059,0.09589 -0.22119,0.19177 -0.33513,0.29056c-0.11633,0.09871 -0.23266,0.19742 -0.35251,0.29912c-0.11387,0.09977 -0.22774,0.19954 -0.34506,0.30233c-0.11141,0.09553 -0.22283,0.19106 -0.33762,0.28949c-0.15199,0.13035 -0.15199,0.13035 -0.30705,0.26334c-0.35434,0.24682 -0.68679,0.36999 -1.11541,0.49758c-0.09673,-0.9341 0.09848,-1.46787 0.79439,-2.19178c0.77541,-0.66139 1.26356,-0.99913 2.38318,-0.9589z" id="Path 1" fill="#f4d0c9"/><path d="M662.23248,170.09828c0.31776,0.27397 0.31776,0.27397 0.33017,0.60734c-0.17129,0.35156 -0.17129,0.35156 -0.6802,0.57898c-0.21319,0.06679 -0.4276,0.13073 -0.64296,0.1921c-0.78134,0.2317 -1.42053,0.4404 -2.0257,0.95034c-0.14076,0.42995 -0.14076,0.42995 -0.15888,0.82192c-0.10486,-0.13562 -0.20972,-0.27123 -0.31776,-0.41096c-0.10486,0.04521 -0.20972,0.09041 -0.31776,0.13699c0.54181,-1.2926 2.03135,-3.15323 3.81308,-2.87671z" id="Path 1" fill="#f2cec8"/><path d="M728.48481,173.9339c0,1.0769 -1.01739,2.17393 -1.67815,3.06507c-0.05774,0.07811 -0.11548,0.15621 -0.17498,0.23668c-0.40258,0.53198 -0.84526,1.01209 -1.32444,1.49277c-0.15888,-0.27397 -0.15888,-0.27397 -0.08565,-0.53296c0.72466,-1.61275 1.87093,-3.02514 3.26322,-4.26156z" id="Path 1" fill="#ebc9c2"/><path d="M781.23248,173.9339c0.05243,0.09041 0.10486,0.18082 0.15888,0.27397c-0.19185,0.36782 -0.39331,0.71628 -0.61565,1.07021c-0.06442,0.10385 -0.12885,0.20771 -0.19522,0.31471c-0.60669,0.95912 -1.30395,1.84198 -2.04894,2.72468c-0.10486,0.13562 -0.20972,0.27123 -0.31776,0.41096c-0.10486,-0.04521 -0.20972,-0.09041 -0.31776,-0.13699c0.74053,-1.75184 1.82973,-3.31248 3.33645,-4.65753z" id="Path 1" fill="#eac8c2"/><path d="M726.26051,176.53664c0.10486,0 0.20972,0 0.31776,0c0.05567,0.51151 0.04459,0.76099 -0.27804,1.20184c-0.11797,0.1176 -0.23593,0.23521 -0.35748,0.35638c-0.17695,0.17959 -0.17695,0.17959 -0.35748,0.3628c-0.13763,0.13403 -0.13763,0.13403 -0.27804,0.27076c-0.15888,-0.27397 -0.15888,-0.27397 -0.05213,-0.58112c0.05653,-0.11902 0.11305,-0.23804 0.17129,-0.36066c0.05489,-0.11831 0.10978,-0.23662 0.16633,-0.35852c0.18803,-0.33794 0.38004,-0.61074 0.66779,-0.89148z" id="Path 1" fill="#edecec"/><path d="M698.93341,172.01609c-0.22453,0.15471 -0.44974,0.30867 -0.67523,0.46233c-0.12534,0.08582 -0.25068,0.17164 -0.37982,0.26006c-0.33187,0.2094 -0.63016,0.37714 -1.01037,0.51049c-0.35748,-0.05137 -0.35748,-0.05137 -0.63551,-0.13699c1.84213,-1.46612 1.84213,-1.46612 2.70093,-1.09589z" id="Path 1" fill="#e2c1ba"/><path d="M778.8493,176.81061c0.10486,0 0.20972,0 0.31776,0c0.07752,0.44559 0.06357,0.73248 -0.21225,1.12051c-0.23931,0.27221 -0.48398,0.53743 -0.74102,0.7973c-0.10486,-0.04521 -0.20972,-0.09041 -0.31776,-0.13699c0.12861,-0.27129 0.25781,-0.54237 0.38727,-0.81336c0.07189,-0.15098 0.14377,-0.30196 0.21784,-0.45751c0.18929,-0.37297 0.18929,-0.37297 0.34817,-0.50995z" id="Path 1" fill="#edecec"/><path d="M630.33762,168.77123c0.09175,0.03108 0.1835,0.06216 0.27804,0.09418c-0.1153,0.05456 -0.23061,0.10913 -0.34941,0.16535c-0.47028,0.25958 -0.82119,0.54286 -1.20959,0.88774c-0.18832,0.16608 -0.18832,0.16608 -0.38044,0.33551c-0.14101,0.12635 -0.14101,0.12635 -0.28486,0.25524c-0.10486,-0.04521 -0.20972,-0.09041 -0.31776,-0.13699c0.19784,-0.19749 0.39662,-0.39427 0.59579,-0.59075c0.11059,-0.10966 0.22119,-0.21932 0.33513,-0.3323c0.81264,-0.7403 0.81264,-0.7403 1.33309,-0.67798z" id="Path 1" fill="#3a3232"/><path d="M661.59696,172.01609c-0.22697,0.14154 -0.4557,0.281 -0.68516,0.41952c-0.19078,0.11681 -0.19078,0.11681 -0.3854,0.23598c-0.11858,0.05492 -0.23716,0.10984 -0.35934,0.16642c-0.15729,-0.04521 -0.31458,-0.09041 -0.47664,-0.13699c1.28775,-0.95169 1.28775,-0.95169 1.90654,-0.68493z" id="Path 1" fill="#e0bfb9"/><path d="M624.73715,170.50924c0.10486,0.04521 0.20972,0.09041 0.31776,0.13699c-0.08439,0.61846 -0.37594,1.00639 -0.79439,1.50685c-0.19286,-0.49885 -0.10605,-0.59338 0.14895,-1.05308c0.09063,-0.16608 0.09063,-0.16608 0.18308,-0.33551c0.04772,-0.08423 0.09544,-0.16846 0.1446,-0.25524z" id="Path 1" fill="#d4b5af"/><path d="M768.5222,169.82431c-0.21927,0.45688 -0.45273,0.71042 -0.95327,0.9589c-0.15729,-0.04521 -0.31458,-0.09041 -0.47664,-0.13699c0.1779,-0.1378 0.35683,-0.2746 0.53621,-0.41096c0.1493,-0.11443 0.1493,-0.11443 0.30162,-0.23116c0.27431,-0.17979 0.27431,-0.17979 0.59207,-0.17979z" id="Path 1" fill="#dfbeb8"/><path d="M704.65304,169.82431c0,0.13562 0,0.27123 0,0.41096c-0.36741,0.30822 -0.36741,0.30822 -0.79439,0.54795c-0.15729,-0.04521 -0.31458,-0.09041 -0.47664,-0.13699c0.91355,-0.66781 0.91355,-0.66781 1.27103,-0.82192z" id="Path 1" fill="#e3c1bb"/><path d="M648.7278,169.82431c0,0.13562 0,0.27123 0,0.41096c-0.36741,0.30822 -0.36741,0.30822 -0.79439,0.54795c-0.15729,-0.04521 -0.31458,-0.09041 -0.47664,-0.13699c0.41944,-0.27123 0.83888,-0.54247 1.27103,-0.82192z" id="Path 1" fill="#e6c4be"/><path d="M728.48481,173.9339c0,0.43162 -0.04432,0.60527 -0.31776,0.9589c-0.33762,0.10274 -0.33762,0.10274 -0.63551,0.13699c0.22919,-0.46108 0.52949,-0.75486 0.95327,-1.09589z" id="Path 1" fill="#debdb7"/><path d="M658.89603,172.01609c0.31776,0.41096 0.31776,0.41096 0.25818,0.8476c-0.03277,0.12714 -0.06554,0.25428 -0.0993,0.38527c-0.10486,-0.13562 -0.20972,-0.27123 -0.31776,-0.41096c-0.15729,0.06781 -0.15729,0.06781 -0.31776,0.13699c0.2979,-0.65068 0.2979,-0.65068 0.47664,-0.9589z" id="Path 1" fill="#d4b5af"/></g></g></svg>