<?xml version="1.0" encoding="UTF-8"?>
<svg xmlns="http://www.w3.org/2000/svg" xmlns:xlink="http://www.w3.org/1999/xlink" width="550px" height="225px" viewBox="0 0 549 225" version="1.1">
<g id="surface1">
<path style=" stroke:none;fill-rule:evenodd;fill:rgb(97.647059%,83.137256%,80.392158%);fill-opacity:1;" d="M -0.257812 -0.257812 C 182.742188 -0.257812 365.742188 -0.257812 548.742188 -0.257812 C 548.742188 74.742188 548.742188 149.742188 548.742188 224.742188 C 365.742188 224.742188 182.742188 224.742188 -0.257812 224.742188 C -0.257812 149.742188 -0.257812 74.742188 -0.257812 -0.257812 Z M -0.257812 -0.257812 "/>
<path style=" stroke:none;fill-rule:evenodd;fill:rgb(99.607843%,100%,99.607843%);fill-opacity:1;" d="M 15.136719 17.722656 C 29.671875 17.722656 44.210938 17.722656 58.75 17.722656 C 58.75 43.40625 58.75 69.09375 58.75 94.777344 C 44.210938 94.777344 29.671875 94.777344 15.136719 94.777344 C 15.136719 69.09375 15.136719 43.40625 15.136719 17.722656 Z M 15.136719 17.722656 "/>
<path style=" stroke:none;fill-rule:evenodd;fill:rgb(99.607843%,100%,99.607843%);fill-opacity:1;" d="M 167.523438 17.722656 C 181.886719 17.722656 196.253906 17.722656 210.621094 17.722656 C 210.621094 43.40625 210.621094 69.09375 210.621094 94.777344 C 196.253906 94.777344 181.886719 94.777344 167.523438 94.777344 C 167.523438 69.09375 167.523438 43.40625 167.523438 17.722656 Z M 167.523438 17.722656 "/>
<path style=" stroke:none;fill-rule:evenodd;fill:rgb(99.607843%,99.607843%,99.607843%);fill-opacity:1;" d="M 256.796875 94.777344 C 258.375 92.480469 259.828125 90.082031 261.160156 87.585938 C 261.394531 84.226562 260.109375 83.628906 257.3125 85.789062 C 255.664062 87.691406 254.121094 89.660156 252.695312 91.695312 C 252.179688 67.125 252.011719 42.46875 252.179688 17.722656 C 266.71875 17.722656 281.253906 17.722656 295.792969 17.722656 C 295.792969 43.40625 295.792969 69.09375 295.792969 94.777344 C 282.796875 94.777344 269.796875 94.777344 256.796875 94.777344 Z M 256.796875 94.777344 "/>
<path style=" stroke:none;fill-rule:evenodd;fill:rgb(99.607843%,99.607843%,99.607843%);fill-opacity:1;" d="M 78.757812 94.777344 C 80.402344 91.828125 81.769531 88.746094 82.863281 85.53125 C 82.863281 84.503906 82.351562 83.988281 81.324219 83.988281 C 80.007812 84.535156 78.894531 85.390625 77.988281 86.558594 C 76.261719 89.386719 74.46875 92.128906 72.601562 94.777344 C 70.011719 94.945312 67.449219 94.773438 64.90625 94.265625 C 76.460938 69.152344 87.917969 43.980469 99.28125 18.75 C 114.332031 18.066406 129.382812 18.066406 144.433594 18.75 C 133.058594 43.921875 121.6875 69.09375 110.3125 94.265625 C 99.832031 94.773438 89.316406 94.945312 78.757812 94.777344 Z M 78.757812 94.777344 "/>
<path style=" stroke:none;fill-rule:evenodd;fill:rgb(99.607843%,99.607843%,99.607843%);fill-opacity:1;" d="M 348.640625 91.695312 C 347.722656 91.839844 346.867188 91.671875 346.074219 91.179688 C 346.757812 90.152344 347.445312 89.125 348.128906 88.097656 C 347.957031 87.585938 347.613281 87.242188 347.101562 87.070312 C 345.3125 88.34375 343.945312 89.972656 342.996094 91.953125 C 338.339844 92.160156 333.722656 92.675781 329.144531 93.492188 C 328.757812 93.835938 328.585938 94.265625 328.628906 94.777344 C 319.738281 94.777344 310.84375 94.777344 301.949219 94.777344 C 313.058594 69.207031 324.515625 43.78125 336.328125 18.492188 C 351.378906 18.066406 366.429688 18.152344 381.476562 18.75 C 370.242188 42.960938 359.296875 67.273438 348.640625 91.695312 Z M 348.640625 91.695312 "/>
<path style=" stroke:none;fill-rule:evenodd;fill:rgb(99.607843%,99.607843%,99.607843%);fill-opacity:1;" d="M 476.910156 94.265625 C 478.3125 91.714844 479.511719 89.058594 480.503906 86.300781 C 479.796875 84.277344 478.683594 84.019531 477.167969 85.53125 C 475.230469 88.5625 473.433594 91.644531 471.78125 94.777344 C 469.472656 95.0625 467.335938 94.71875 465.367188 93.75 C 463.777344 82.890625 462.066406 72.105469 460.238281 61.386719 C 458.585938 72.515625 456.960938 83.648438 455.363281 94.777344 C 442.359375 94.949219 429.363281 94.777344 416.367188 94.265625 C 423.355469 69.015625 430.027344 43.675781 436.378906 18.234375 C 452.75 18.066406 469.082031 18.238281 485.378906 18.75 C 492.128906 44.070312 498.710938 69.414062 505.132812 94.777344 C 495.636719 94.945312 486.230469 94.777344 476.910156 94.265625 Z M 476.910156 94.265625 "/>
<path style=" stroke:none;fill-rule:evenodd;fill:rgb(17.254902%,15.294118%,15.294118%);fill-opacity:1;" d="M 256.796875 94.777344 C 253.234375 99.550781 249.644531 104.34375 246.023438 109.160156 C 246.109375 109.332031 246.195312 109.503906 246.28125 109.675781 C 248.675781 106.382812 251.839844 104.328125 255.773438 103.511719 C 259.253906 104.085938 260.792969 106.140625 260.390625 109.675781 C 262.933594 109.148438 265.496094 108.722656 268.085938 108.390625 C 270.324219 105.441406 273.230469 103.902344 276.808594 103.765625 C 277.484375 107.203125 276.113281 109.601562 272.703125 110.957031 C 270.023438 110.945312 268.058594 112.058594 266.804688 114.296875 C 266.292969 117.722656 267.746094 119.007812 271.164062 118.152344 C 272.992188 117.519531 274.699219 116.664062 276.296875 115.582031 C 279.714844 112.5 283.136719 109.417969 286.558594 106.335938 C 289.625 104.105469 292.703125 104.023438 295.792969 106.078125 C 297.066406 105.058594 298.265625 103.945312 299.382812 102.738281 C 299.871094 102.492188 300.382812 102.40625 300.925781 102.484375 C 299.601562 106.160156 297.976562 109.757812 296.050781 113.269531 C 294.777344 115.890625 294.261719 118.628906 294.511719 121.488281 C 295.089844 122.367188 295.859375 122.625 296.820312 122.261719 C 301.953125 119.179688 306.484375 115.324219 310.414062 110.703125 C 311.796875 108.472656 313.335938 106.417969 315.035156 104.539062 C 315.691406 104.597656 316.117188 104.9375 316.316406 105.566406 C 314.179688 108.304688 312.726562 111.386719 311.957031 114.8125 C 311.558594 115.789062 311.730469 116.644531 312.46875 117.378906 C 317.707031 113.675781 322.066406 109.140625 325.550781 103.765625 C 326.039062 103.449219 326.464844 103.535156 326.835938 104.023438 C 326.304688 106.8125 325.453125 109.550781 324.269531 112.242188 C 324.011719 113.773438 323.929688 115.316406 324.011719 116.867188 C 328.019531 115.753906 331.351562 113.527344 334.019531 110.1875 C 336.628906 105.128906 339.109375 99.992188 341.457031 94.777344 C 337.085938 94.496094 332.808594 94.496094 328.628906 94.777344 C 328.585938 94.265625 328.757812 93.835938 329.144531 93.492188 C 333.722656 92.675781 338.339844 92.160156 342.996094 91.953125 C 343.945312 89.972656 345.3125 88.34375 347.101562 87.070312 C 347.613281 87.242188 347.957031 87.585938 348.128906 88.097656 C 347.445312 89.125 346.757812 90.152344 346.074219 91.179688 C 346.867188 91.671875 347.722656 91.839844 348.640625 91.695312 C 351.289062 91.480469 353.769531 91.992188 356.082031 93.234375 C 356.121094 95.566406 355.351562 95.824219 353.773438 94.007812 C 350.691406 93.664062 347.613281 93.664062 344.535156 94.007812 C 339.8125 102.007812 336.136719 110.484375 333.503906 119.433594 C 332.914062 121.457031 332.488281 123.511719 332.222656 125.597656 C 332.191406 126.90625 332.535156 128.105469 333.25 129.195312 C 332.476562 129.835938 331.707031 129.835938 330.9375 129.195312 C 330.433594 128.238281 330.175781 127.210938 330.167969 126.113281 C 330.800781 121.878906 331.742188 117.769531 332.992188 113.785156 C 330.613281 117.039062 327.449219 118.664062 323.5 118.664062 C 323.070312 118.238281 322.644531 117.808594 322.21875 117.378906 C 321.996094 115.300781 321.996094 113.246094 322.21875 111.214844 C 320.25 113.871094 317.941406 116.183594 315.289062 118.152344 C 311.546875 120.414062 309.578125 119.300781 309.390625 114.8125 C 305.679688 119.273438 301.144531 122.527344 295.792969 124.570312 C 293.257812 124.089844 292.0625 122.546875 292.203125 119.949219 C 292.4375 117.015625 293.292969 114.273438 294.765625 111.730469 C 294.597656 111.558594 294.425781 111.386719 294.253906 111.214844 C 291.277344 115.054688 287.6875 118.136719 283.480469 120.460938 C 282.65625 120.390625 281.96875 120.050781 281.425781 119.433594 C 281.125 117.890625 280.785156 116.351562 280.402344 114.8125 C 277.195312 117.785156 273.433594 119.671875 269.113281 120.460938 C 266.375 120.121094 264.835938 118.578125 264.496094 115.839844 C 264.632812 113.96875 265.316406 112.339844 266.546875 110.957031 C 264.453125 110.898438 262.398438 111.242188 260.390625 111.984375 C 257.542969 115.695312 253.949219 118.433594 249.617188 120.207031 C 245 120.234375 244.316406 118.523438 247.5625 115.070312 C 250.847656 112.953125 254.351562 111.328125 258.082031 110.1875 C 257.980469 105.183594 255.839844 104.242188 251.667969 107.363281 C 247.605469 111.132812 244.355469 115.5 241.917969 120.460938 C 241.175781 120.117188 240.835938 119.519531 240.894531 118.664062 C 243.390625 109.019531 247.324219 100.03125 252.695312 91.695312 C 254.121094 89.660156 255.664062 87.691406 257.3125 85.789062 C 260.109375 83.628906 261.394531 84.226562 261.160156 87.585938 C 259.828125 90.082031 258.375 92.480469 256.796875 94.777344 Z M 256.796875 94.777344 "/>
<path style=" stroke:none;fill-rule:evenodd;fill:rgb(85.09804%,81.960785%,81.568629%);fill-opacity:1;" d="M 258.335938 87.585938 C 258.863281 87.789062 258.949219 88.132812 258.59375 88.613281 C 256.371094 91.695312 254.148438 94.777344 251.925781 97.859375 C 253.476562 94.144531 255.613281 90.71875 258.335938 87.585938 Z M 258.335938 87.585938 "/>
<path style=" stroke:none;fill-rule:evenodd;fill:rgb(17.254902%,14.901961%,15.294118%);fill-opacity:1;" d="M 33.605469 101.457031 C 35.367188 101.074219 36.222656 101.757812 36.171875 103.511719 C 34.527344 108.027344 33.242188 112.652344 32.324219 117.378906 C 31.980469 118.75 31.980469 120.121094 32.324219 121.488281 C 33.199219 121.90625 33.628906 122.589844 33.605469 123.542969 C 31.082031 123.554688 29.882812 122.269531 30.015625 119.691406 C 30.1875 117.882812 30.445312 116.085938 30.785156 114.296875 C 31.832031 110.816406 32.859375 107.390625 33.863281 104.023438 C 30.015625 108.5625 26.167969 113.097656 22.320312 117.636719 C 20.597656 118.167969 19.570312 117.566406 19.242188 115.839844 C 19.703125 113.347656 20.304688 110.949219 21.035156 108.648438 C 19.027344 111.46875 17.144531 114.382812 15.390625 117.378906 C 12.777344 120.269531 11.582031 119.753906 11.800781 115.839844 C 12.839844 112.21875 14.292969 108.796875 16.164062 105.566406 C 16.773438 105.085938 17.457031 104.917969 18.214844 105.050781 C 17.121094 107.585938 16.007812 110.15625 14.878906 112.757812 C 14.539062 113.269531 14.539062 113.785156 14.878906 114.296875 C 17.042969 110.5625 19.523438 107.050781 22.320312 103.765625 C 22.984375 103.515625 23.667969 103.429688 24.371094 103.511719 C 23.4375 107.257812 22.667969 111.023438 22.0625 114.8125 C 25.804688 110.207031 29.652344 105.753906 33.605469 101.457031 Z M 33.605469 101.457031 "/>
<path style=" stroke:none;fill-rule:evenodd;fill:rgb(16.470589%,14.509805%,14.901961%);fill-opacity:1;" d="M 193.6875 106.59375 C 195.003906 105.25 196.542969 104.476562 198.308594 104.28125 C 198.734375 104.707031 199.164062 105.136719 199.589844 105.566406 C 199.664062 108.519531 200.007812 111.429688 200.617188 114.296875 C 201.921875 114.964844 203.203125 114.878906 204.464844 114.042969 C 207.828125 111.058594 211.078125 107.976562 214.210938 104.792969 C 215.375 103.996094 216.660156 103.570312 218.0625 103.511719 C 219.511719 103.871094 220.964844 103.957031 222.421875 103.765625 C 224.828125 97.238281 227.90625 91.070312 231.65625 85.273438 C 232.421875 84.570312 233.191406 84.484375 233.964844 85.015625 C 234.308594 86.214844 234.308594 87.414062 233.964844 88.613281 C 231.296875 94.019531 228.21875 99.15625 224.730469 104.023438 C 224.398438 104.914062 224.480469 105.773438 224.988281 106.59375 C 221.949219 111.78125 220.839844 117.433594 221.652344 123.542969 C 222.222656 124.519531 222.308594 125.460938 221.910156 126.371094 C 220.289062 126.28125 219.519531 125.335938 219.601562 123.542969 C 219.257812 120.976562 219.257812 118.40625 219.601562 115.839844 C 220.34375 113.828125 220.6875 111.773438 220.625 109.675781 C 218.710938 112.964844 216.402344 115.960938 213.699219 118.664062 C 208.828125 121.328125 206.691406 119.871094 207.285156 114.296875 C 204.992188 116.9375 202.339844 117.449219 199.332031 115.839844 C 198.664062 115.113281 198.234375 114.257812 198.050781 113.269531 C 197.960938 111.023438 197.707031 108.800781 197.28125 106.59375 C 196.433594 107.183594 195.664062 107.867188 194.972656 108.648438 C 192.941406 111.945312 190.972656 115.285156 189.070312 118.664062 C 188.585938 118.980469 188.15625 118.894531 187.789062 118.40625 C 187.660156 117.019531 187.660156 115.652344 187.789062 114.296875 C 184.351562 118.597656 180.160156 121.9375 175.21875 124.316406 C 173.246094 124.910156 171.792969 124.308594 170.855469 122.515625 C 170.515625 120.804688 170.515625 119.09375 170.855469 117.378906 C 171.460938 115.0625 172.144531 112.835938 172.910156 110.703125 C 169.710938 114.25 166.203125 117.417969 162.390625 120.207031 C 159.773438 120.40625 158.578125 119.121094 158.800781 116.351562 C 159.75 109.835938 163.429688 105.894531 169.832031 104.539062 C 171.359375 104.617188 172.730469 105.132812 173.933594 106.078125 C 175.046875 104.964844 176.160156 103.851562 177.269531 102.738281 C 178.203125 102.335938 178.886719 102.59375 179.324219 103.511719 C 176.648438 107.683594 174.511719 112.136719 172.910156 116.867188 C 172.566406 118.578125 172.566406 120.292969 172.910156 122.003906 C 173.28125 122.289062 173.707031 122.460938 174.191406 122.515625 C 178.882812 119.96875 183.074219 116.714844 186.761719 112.757812 C 189.386719 109.640625 191.695312 106.304688 193.6875 102.738281 C 194.441406 102.429688 194.953125 102.6875 195.226562 103.511719 C 194.683594 104.554688 194.171875 105.582031 193.6875 106.59375 Z M 193.6875 106.59375 "/>
<path style=" stroke:none;fill-rule:evenodd;fill:rgb(16.862746%,14.901961%,15.294118%);fill-opacity:1;" d="M 476.910156 94.265625 C 474.632812 97.707031 472.410156 101.214844 470.242188 104.792969 C 470.414062 105.308594 470.582031 105.820312 470.753906 106.335938 C 469.976562 107.128906 469.378906 108.070312 468.957031 109.160156 C 467.492188 114.035156 466.976562 119 467.417969 124.058594 C 468.472656 125.097656 468.386719 125.953125 467.164062 126.625 C 466.371094 126.261719 465.855469 125.660156 465.625 124.828125 C 465.320312 123.394531 465.148438 121.9375 465.109375 120.460938 C 465.328125 116.964844 465.757812 113.539062 466.394531 110.1875 C 464.101562 113.832031 461.28125 117 457.925781 119.691406 C 453.976562 120.53125 452.351562 118.90625 453.054688 114.8125 C 451.085938 116.78125 449.121094 118.75 447.152344 120.71875 C 444.871094 122.546875 442.304688 123.832031 439.457031 124.570312 C 436.84375 124.03125 435.648438 122.40625 435.863281 119.691406 C 436.617188 116.40625 437.558594 113.238281 438.6875 110.1875 C 435.539062 114.457031 431.691406 117.882812 427.140625 120.460938 C 426.316406 120.390625 425.632812 120.050781 425.089844 119.433594 C 424.789062 117.890625 424.449219 116.351562 424.0625 114.8125 C 421.332031 117.035156 418.425781 119.003906 415.339844 120.71875 C 409.699219 123.082031 406.878906 121.285156 406.875 115.324219 C 403.523438 119.265625 399.507812 122.261719 394.816406 124.316406 C 391.859375 124.609375 390.320312 123.238281 390.199219 120.207031 C 390.644531 116.65625 391.585938 113.316406 393.023438 110.1875 C 390.007812 114.0625 386.503906 117.402344 382.503906 120.207031 C 381.039062 120.675781 379.929688 120.246094 379.167969 118.921875 C 378.625 111.160156 382.132812 106.363281 389.6875 104.539062 C 391.277344 104.476562 392.644531 104.992188 393.792969 106.078125 C 395.066406 105.058594 396.261719 103.945312 397.382812 102.738281 C 397.871094 102.492188 398.382812 102.40625 398.921875 102.484375 C 397.601562 106.160156 395.976562 109.757812 394.046875 113.269531 C 392.773438 115.890625 392.261719 118.628906 392.507812 121.488281 C 392.886719 122.042969 393.402344 122.382812 394.046875 122.515625 C 396.214844 121.734375 398.183594 120.621094 399.949219 119.179688 C 404.410156 114.882812 408.6875 110.429688 412.777344 105.820312 C 414.617188 104.382812 416.671875 103.867188 418.933594 104.28125 C 420.261719 106.128906 420.261719 108.011719 418.933594 109.929688 C 418.042969 110.246094 417.527344 109.902344 417.394531 108.902344 C 417.769531 107.996094 417.941406 107.054688 417.90625 106.078125 C 413.695312 107.296875 410.875 110.035156 409.441406 114.296875 C 407.949219 118.707031 409.402344 120.335938 413.800781 119.179688 C 420.011719 115.878906 425.484375 111.597656 430.222656 106.335938 C 433.289062 104.105469 436.367188 104.023438 439.457031 106.078125 C 440.730469 105.058594 441.929688 103.945312 443.046875 102.738281 C 443.535156 102.492188 444.046875 102.40625 444.585938 102.484375 C 444.667969 103.1875 444.582031 103.875 444.332031 104.539062 C 441.578125 108.847656 439.527344 113.472656 438.175781 118.40625 C 437.507812 120.296875 438.019531 121.664062 439.714844 122.515625 C 441.621094 121.777344 443.417969 120.832031 445.101562 119.691406 C 450.089844 114.699219 455.046875 109.734375 459.980469 104.792969 C 461.144531 103.996094 462.425781 103.570312 463.828125 103.511719 C 465.28125 103.871094 466.734375 103.957031 468.1875 103.765625 C 469.460938 100.796875 470.65625 97.800781 471.78125 94.777344 C 473.433594 91.644531 475.230469 88.5625 477.167969 85.53125 C 478.683594 84.019531 479.796875 84.277344 480.503906 86.300781 C 479.511719 89.058594 478.3125 91.714844 476.910156 94.265625 Z M 476.910156 94.265625 "/>
<path style=" stroke:none;fill-rule:evenodd;fill:rgb(16.862746%,14.901961%,14.901961%);fill-opacity:1;" d="M 509.234375 101.457031 C 509.921875 101.457031 510.605469 101.457031 511.289062 101.457031 C 511.371094 102.835938 511.285156 104.207031 511.03125 105.566406 C 508.855469 110.503906 507.660156 115.640625 507.441406 120.976562 C 507.992188 121.550781 508.589844 122.0625 509.234375 122.515625 C 508.171875 123.863281 507.058594 123.863281 505.902344 122.515625 C 505.34375 116.394531 506.453125 110.570312 509.234375 105.050781 C 509.066406 104.878906 508.894531 104.707031 508.722656 104.539062 C 504.851562 108.839844 501.085938 113.207031 497.433594 117.636719 C 496.609375 118.007812 495.839844 117.921875 495.125 117.378906 C 494.785156 115.839844 494.785156 114.296875 495.125 112.757812 C 495.800781 111.425781 496.144531 110.058594 496.152344 108.648438 C 494.441406 111.386719 492.730469 114.125 491.023438 116.867188 C 490.300781 117.972656 489.359375 118.828125 488.199219 119.433594 C 487.289062 119.039062 486.777344 118.355469 486.660156 117.378906 C 486.898438 116.316406 487.242188 115.289062 487.6875 114.296875 C 487.515625 114.125 487.34375 113.957031 487.171875 113.785156 C 484.167969 116.574219 480.746094 118.714844 476.910156 120.207031 C 471.867188 120.976562 469.726562 118.835938 470.5 113.785156 C 472.214844 109.839844 474.863281 106.671875 478.449219 104.28125 C 483.503906 103.046875 484.445312 104.671875 481.273438 109.160156 C 478.914062 110.691406 476.351562 111.71875 473.578125 112.242188 C 472.460938 113.808594 472.117188 115.519531 472.550781 117.378906 C 473.21875 118.140625 474.074219 118.484375 475.117188 118.40625 C 482.113281 115.964844 487.671875 111.597656 491.792969 105.308594 C 492.277344 105.058594 492.789062 104.976562 493.332031 105.050781 C 492.285156 108.003906 491.085938 110.914062 489.738281 113.785156 C 489.917969 114.398438 490.171875 114.398438 490.507812 113.785156 C 492.5625 110.703125 494.613281 107.621094 496.664062 104.539062 C 498.175781 103.003906 499.285156 103.175781 500 105.050781 C 499.28125 107.125 498.511719 109.179688 497.691406 111.214844 C 497.179688 112.566406 497.011719 113.933594 497.179688 115.324219 C 500.761719 110.285156 504.78125 105.664062 509.234375 101.457031 Z M 509.234375 101.457031 "/>
<path style=" stroke:none;fill-rule:evenodd;fill:rgb(17.254902%,14.901961%,15.294118%);fill-opacity:1;" d="M 78.757812 94.777344 C 76.25 98.234375 73.429688 101.488281 70.292969 104.539062 C 68.984375 106.75 67.875 109.0625 66.957031 111.472656 C 68.832031 111.335938 70.542969 110.652344 72.089844 109.417969 C 75.242188 107.03125 78.320312 104.550781 81.324219 101.96875 C 82.238281 102.40625 82.496094 103.089844 82.09375 104.023438 C 77.878906 107.71875 73.34375 110.972656 68.496094 113.785156 C 74.261719 116.324219 79.5625 115.550781 84.402344 111.472656 C 86.640625 109.058594 89.035156 106.832031 91.585938 104.792969 C 93.144531 103.765625 94.851562 103.335938 96.714844 103.511719 C 97.210938 106.203125 96.355469 108.34375 94.152344 109.929688 C 91.792969 110.835938 89.484375 111.78125 87.222656 112.757812 C 85.074219 115.632812 85.671875 117.515625 89.019531 118.40625 C 91.484375 118.03125 93.707031 117.085938 95.691406 115.582031 C 99.671875 112.453125 103.09375 108.855469 105.953125 104.792969 C 106.4375 104.546875 106.953125 104.460938 107.492188 104.539062 C 107.570312 105.242188 107.484375 105.929688 107.234375 106.59375 C 104.707031 109.8125 103.597656 113.410156 103.898438 117.378906 C 104.992188 116.882812 106.019531 116.285156 106.976562 115.582031 C 110.679688 111.621094 114.269531 107.597656 117.753906 103.511719 C 118.378906 103.710938 118.722656 104.136719 118.777344 104.792969 C 116.71875 108.40625 115.609375 112.257812 115.445312 116.351562 C 115.816406 116.640625 116.242188 116.8125 116.726562 116.867188 C 118.925781 116.277344 120.808594 115.167969 122.371094 113.527344 C 125.441406 110.542969 128.007812 107.203125 130.066406 103.511719 C 130.691406 103.710938 131.035156 104.136719 131.09375 104.792969 C 130.519531 105.511719 130.265625 106.28125 130.324219 107.105469 C 132.671875 104.71875 135.492188 103.945312 138.789062 104.792969 C 140.238281 105.894531 140.921875 107.351562 140.839844 109.160156 C 143.429688 108.984375 145.996094 108.644531 148.539062 108.132812 C 148.539062 108.816406 148.539062 109.503906 148.539062 110.1875 C 145.949219 110.449219 143.386719 110.878906 140.839844 111.472656 C 138.96875 113.515625 136.917969 115.398438 134.683594 117.125 C 132.589844 118.464844 130.367188 118.890625 128.015625 118.40625 C 127.429688 117.421875 127.34375 116.394531 127.757812 115.324219 C 130.929688 112.667969 134.519531 110.785156 138.53125 109.675781 C 138.238281 105.882812 136.441406 105.113281 133.144531 107.363281 C 129.390625 110.351562 126.570312 114.03125 124.679688 118.40625 C 122 124.867188 120.203125 131.546875 119.292969 138.441406 C 118.609375 138.441406 117.921875 138.441406 117.238281 138.441406 C 118.3125 130.417969 120.539062 122.710938 123.910156 115.324219 C 123.824219 115.152344 123.738281 114.984375 123.652344 114.8125 C 121.472656 117.574219 118.648438 118.859375 115.1875 118.664062 C 114.417969 118.238281 113.820312 117.636719 113.390625 116.867188 C 113.226562 115.304688 113.226562 113.765625 113.390625 112.242188 C 111.015625 115.136719 108.195312 117.449219 104.925781 119.179688 C 103.796875 119.601562 102.855469 119.34375 102.105469 118.40625 C 101.253906 116.726562 101.082031 115.015625 101.589844 113.269531 C 97.996094 117.082031 93.632812 119.480469 88.507812 120.460938 C 85.390625 119.910156 83.679688 118.023438 83.375 114.8125 C 77.824219 117.996094 72.179688 118.167969 66.445312 115.324219 C 65.777344 115.628906 65.351562 116.140625 65.160156 116.867188 C 64.59375 119.574219 64.253906 122.3125 64.136719 125.085938 C 63.621094 125.769531 63.109375 125.769531 62.597656 125.085938 C 62.511719 124.144531 62.425781 123.203125 62.339844 122.261719 C 62.605469 119.917969 62.863281 117.605469 63.109375 115.324219 C 59.480469 119.652344 55.03125 122.738281 49.769531 124.570312 C 48.796875 124.511719 47.941406 124.171875 47.203125 123.542969 C 46.417969 121.382812 46.246094 119.15625 46.691406 116.867188 C 47.414062 114.753906 48.097656 112.699219 48.742188 110.703125 C 46.261719 113.871094 43.441406 116.695312 40.277344 119.179688 C 37.105469 121.425781 35.222656 120.65625 34.632812 116.867188 C 35.582031 109.148438 39.859375 105.125 47.460938 104.792969 C 48.316406 105.222656 49.171875 105.652344 50.027344 106.078125 C 51.054688 104.621094 52.339844 103.421875 53.875 102.484375 C 54.53125 102.539062 54.957031 102.882812 55.15625 103.511719 C 51.863281 108.480469 49.636719 113.871094 48.488281 119.691406 C 48.570312 120.460938 48.65625 121.234375 48.742188 122.003906 C 49.113281 122.289062 49.542969 122.460938 50.027344 122.515625 C 51.707031 122.019531 53.246094 121.25 54.644531 120.207031 C 58.675781 116.851562 62.355469 113.171875 65.675781 109.160156 C 67.859375 104.277344 70.167969 99.480469 72.601562 94.777344 C 74.46875 92.128906 76.261719 89.386719 77.988281 86.558594 C 78.894531 85.390625 80.007812 84.535156 81.324219 83.988281 C 82.351562 83.988281 82.863281 84.503906 82.863281 85.53125 C 81.769531 88.746094 80.402344 91.828125 78.757812 94.777344 Z M 78.757812 94.777344 "/>
<path style=" stroke:none;fill-rule:evenodd;fill:rgb(84.313726%,81.960785%,81.568629%);fill-opacity:1;" d="M 79.273438 88.097656 C 79.550781 88.128906 79.722656 88.300781 79.785156 88.613281 C 78.417969 91.355469 76.792969 93.921875 74.910156 96.320312 C 76.175781 93.5625 77.632812 90.824219 79.273438 88.097656 Z M 79.273438 88.097656 "/>
<path style=" stroke:none;fill-rule:evenodd;fill:rgb(16.862746%,14.901961%,15.294118%);fill-opacity:1;" d="M 346.589844 135.359375 C 345.363281 137.546875 343.824219 139.515625 341.96875 141.265625 C 341.117188 141.609375 340.261719 141.609375 339.40625 141.265625 C 338.839844 140.035156 338.753906 138.75 339.148438 137.414062 C 340.097656 135.175781 341.035156 132.953125 341.96875 130.734375 C 345.292969 124.976562 349.480469 119.839844 354.542969 115.324219 C 357.441406 108.671875 356.925781 107.988281 353 113.269531 C 350.605469 116.136719 347.78125 118.445312 344.535156 120.207031 C 341.546875 121.066406 340.179688 119.953125 340.429688 116.867188 C 341.023438 112.9375 342.476562 109.339844 344.792969 106.078125 C 345.3125 105.648438 345.910156 105.476562 346.589844 105.566406 C 346.667969 106.269531 346.582031 106.957031 346.332031 107.621094 C 343.777344 110.753906 342.496094 114.347656 342.484375 118.40625 C 344.03125 118.230469 345.398438 117.632812 346.589844 116.609375 C 350.582031 113.125 354.003906 109.1875 356.851562 104.792969 C 357.507812 104.441406 358.109375 104.527344 358.644531 105.050781 C 358.71875 107.652344 358.550781 110.222656 358.132812 112.757812 C 361.175781 110.5 364.511719 109.046875 368.136719 108.390625 C 368.371094 108.601562 368.542969 108.859375 368.652344 109.160156 C 364.460938 111.199219 360.445312 113.597656 356.59375 116.351562 C 353.78125 123.011719 350.445312 129.347656 346.589844 135.359375 Z M 346.589844 135.359375 "/>
<path style=" stroke:none;fill-rule:evenodd;fill:rgb(17.254902%,15.294118%,15.294118%);fill-opacity:1;" d="M 516.417969 136.902344 C 515.171875 138.410156 513.800781 139.867188 512.316406 141.265625 C 509.453125 141.914062 508.511719 140.800781 509.492188 137.929688 C 510.296875 135.460938 511.238281 133.066406 512.316406 130.734375 C 515.96875 124.925781 520.328125 119.621094 525.398438 114.8125 C 526.074219 113.132812 526.417969 111.417969 526.425781 109.675781 C 523.238281 113.71875 519.5625 117.230469 515.394531 120.207031 C 512.191406 121.332031 510.652344 120.222656 510.773438 116.867188 C 511.476562 112.96875 512.929688 109.371094 515.136719 106.078125 C 515.65625 105.648438 516.253906 105.476562 516.933594 105.566406 C 517.015625 106.269531 516.925781 106.957031 516.675781 107.621094 C 514.222656 110.8125 512.941406 114.40625 512.828125 118.40625 C 514.226562 118.527344 515.421875 118.101562 516.417969 117.125 C 520.585938 113.46875 524.175781 109.359375 527.195312 104.792969 C 527.851562 104.441406 528.449219 104.527344 528.988281 105.050781 C 529.195312 107.671875 529.027344 110.242188 528.476562 112.757812 C 531.652344 110.4375 535.15625 108.898438 538.996094 108.132812 C 539.082031 108.8125 538.914062 109.414062 538.480469 109.929688 C 534.09375 111.398438 530.246094 113.707031 526.9375 116.867188 C 523.953125 123.878906 520.441406 130.558594 516.417969 136.902344 Z M 516.417969 136.902344 "/>
<path style=" stroke:none;fill-rule:evenodd;fill:rgb(94.509804%,80.392158%,78.039217%);fill-opacity:1;" d="M 216.777344 105.566406 C 218.265625 105.371094 219.632812 105.628906 220.882812 106.335938 C 218.171875 110.386719 215.09375 114.152344 211.648438 117.636719 C 209.296875 118.117188 208.527344 117.175781 209.339844 114.8125 C 210.613281 110.714844 213.09375 107.632812 216.777344 105.566406 Z M 216.777344 105.566406 "/>
<path style=" stroke:none;fill-rule:evenodd;fill:rgb(95.294118%,81.176472%,78.431374%);fill-opacity:1;" d="M 462.546875 105.566406 C 464.03125 105.371094 465.398438 105.628906 466.648438 106.335938 C 463.941406 110.386719 460.863281 114.152344 457.414062 117.636719 C 456.75 117.890625 456.066406 117.972656 455.363281 117.894531 C 455.375 112.390625 457.765625 108.28125 462.546875 105.566406 Z M 462.546875 105.566406 "/>
<path style=" stroke:none;fill-rule:evenodd;fill:rgb(94.509804%,80.392158%,78.039217%);fill-opacity:1;" d="M 43.867188 106.59375 C 45.65625 106.292969 47.195312 106.71875 48.488281 107.875 C 45.300781 111.921875 41.625 115.429688 37.457031 118.40625 C 36.675781 117.320312 36.503906 116.125 36.941406 114.8125 C 38.265625 111.179688 40.574219 108.441406 43.867188 106.59375 Z M 43.867188 106.59375 "/>
<path style=" stroke:none;fill-rule:evenodd;fill:rgb(94.509804%,80.784315%,78.039217%);fill-opacity:1;" d="M 168.035156 106.59375 C 169.820312 106.292969 171.363281 106.71875 172.652344 107.875 C 169.457031 112.019531 165.695312 115.527344 161.363281 118.40625 C 161.03125 113.089844 163.253906 109.152344 168.035156 106.59375 Z M 168.035156 106.59375 "/>
<path style=" stroke:none;fill-rule:evenodd;fill:rgb(89.019608%,75.686276%,73.333335%);fill-opacity:1;" d="M 274.757812 105.566406 C 275.28125 105.769531 275.367188 106.109375 275.011719 106.59375 C 273.976562 108.265625 272.523438 109.039062 270.652344 108.902344 C 271.820312 107.472656 273.1875 106.359375 274.757812 105.566406 Z M 274.757812 105.566406 "/>
<path style=" stroke:none;fill-rule:evenodd;fill:rgb(95.294118%,81.176472%,78.431374%);fill-opacity:1;" d="M 290.148438 106.59375 C 291.1875 106.507812 292.214844 106.59375 293.226562 106.847656 C 294 107.277344 294.257812 107.878906 293.996094 108.648438 C 290.722656 112.183594 287.214844 115.4375 283.480469 118.40625 C 282.789062 116.480469 282.875 114.597656 283.734375 112.757812 C 284.847656 111.300781 285.957031 109.847656 287.070312 108.390625 C 288.214844 107.90625 289.238281 107.308594 290.148438 106.59375 Z M 290.148438 106.59375 "/>
<path style=" stroke:none;fill-rule:evenodd;fill:rgb(95.686275%,81.568629%,78.823531%);fill-opacity:1;" d="M 388.148438 106.59375 C 389.390625 106.484375 390.585938 106.65625 391.738281 107.105469 C 392.296875 107.550781 392.378906 108.0625 391.996094 108.648438 C 388.722656 112.183594 385.214844 115.4375 381.476562 118.40625 C 380.785156 114.730469 381.808594 111.5625 384.554688 108.902344 C 385.785156 108.121094 386.984375 107.351562 388.148438 106.59375 Z M 388.148438 106.59375 "/>
<path style=" stroke:none;fill-rule:evenodd;fill:rgb(95.686275%,81.568629%,78.823531%);fill-opacity:1;" d="M 433.8125 106.59375 C 435.054688 106.484375 436.25 106.65625 437.402344 107.105469 C 437.960938 107.550781 438.046875 108.0625 437.660156 108.648438 C 434.386719 112.183594 430.878906 115.4375 427.140625 118.40625 C 426.3125 115.800781 426.742188 113.40625 428.425781 111.214844 C 430.015625 109.359375 431.8125 107.816406 433.8125 106.59375 Z M 433.8125 106.59375 "/>
<path style=" stroke:none;fill-rule:evenodd;fill:rgb(88.627452%,75.294119%,72.941178%);fill-opacity:1;" d="M 479.988281 105.566406 C 480.441406 105.496094 480.78125 105.667969 481.015625 106.078125 C 480.023438 108.03125 478.484375 108.972656 476.398438 108.902344 C 477.542969 107.671875 478.738281 106.558594 479.988281 105.566406 Z M 479.988281 105.566406 "/>
<path style=" stroke:none;fill-rule:evenodd;fill:rgb(89.803922%,76.862746%,74.117649%);fill-opacity:1;" d="M 94.152344 105.566406 C 94.675781 105.769531 94.761719 106.109375 94.40625 106.59375 C 93.371094 108.265625 91.917969 109.039062 90.046875 108.902344 C 91.214844 107.472656 92.582031 106.359375 94.152344 105.566406 Z M 94.152344 105.566406 "/>
<path style=" stroke:none;fill-rule:evenodd;fill:rgb(61.56863%,52.549022%,51.372552%);fill-opacity:1;" d="M 193.6875 106.59375 C 193.710938 107.238281 193.453125 107.75 192.917969 108.132812 C 192.621094 107.363281 192.875 106.851562 193.6875 106.59375 Z M 193.6875 106.59375 "/>
<path style=" stroke:none;fill-rule:evenodd;fill:rgb(88.235295%,75.294119%,72.941178%);fill-opacity:1;" d="M 134.171875 113.269531 C 135.964844 113.148438 136.136719 113.574219 134.683594 114.554688 C 133.164062 115.832031 131.453125 116.519531 129.554688 116.609375 C 130.945312 115.234375 132.484375 114.121094 134.171875 113.269531 Z M 134.171875 113.269531 "/>
<path style=" stroke:none;fill-rule:evenodd;fill:rgb(89.411765%,76.078433%,73.725492%);fill-opacity:1;" d="M 255.257812 113.269531 C 255.636719 113.203125 255.980469 113.289062 256.285156 113.527344 C 253.976562 116.308594 251.070312 117.847656 247.5625 118.152344 C 249.832031 115.992188 252.398438 114.363281 255.257812 113.269531 Z M 255.257812 113.269531 "/>
<path style=" stroke:none;fill-rule:evenodd;fill:rgb(91.37255%,78.431374%,75.686276%);fill-opacity:1;" d="M 515.394531 133.820312 C 515.566406 132.800781 515.230469 132.113281 514.367188 131.765625 C 516.511719 127.816406 519.164062 124.222656 522.320312 120.976562 C 521.78125 123.089844 520.925781 125.144531 519.753906 127.140625 C 518.542969 129.574219 517.089844 131.800781 515.394531 133.820312 Z M 515.394531 133.820312 "/>
<path style=" stroke:none;fill-rule:evenodd;fill:rgb(89.803922%,76.862746%,74.117649%);fill-opacity:1;" d="M 345.5625 132.792969 C 345.703125 131.824219 345.359375 131.140625 344.535156 130.734375 C 346.878906 126.933594 349.527344 123.335938 352.488281 119.949219 C 352.296875 121.375 351.785156 122.746094 350.949219 124.058594 C 349.398438 127.175781 347.601562 130.085938 345.5625 132.792969 Z M 345.5625 132.792969 "/>
<path style=" stroke:none;fill-rule:evenodd;fill:rgb(99.607843%,100%,99.607843%);fill-opacity:1;" d="M 15.136719 130.734375 C 29.671875 130.734375 44.210938 130.734375 58.75 130.734375 C 58.75 156.421875 58.75 182.105469 58.75 207.792969 C 44.210938 207.792969 29.671875 207.792969 15.136719 207.792969 C 15.136719 182.105469 15.136719 156.421875 15.136719 130.734375 Z M 15.136719 130.734375 "/>
<path style=" stroke:none;fill-rule:evenodd;fill:rgb(99.607843%,100%,99.607843%);fill-opacity:1;" d="M 167.523438 130.734375 C 181.886719 130.734375 196.253906 130.734375 210.621094 130.734375 C 210.621094 156.421875 210.621094 182.105469 210.621094 207.792969 C 196.253906 207.792969 181.886719 207.792969 167.523438 207.792969 C 167.523438 182.105469 167.523438 156.421875 167.523438 130.734375 Z M 167.523438 130.734375 "/>
<path style=" stroke:none;fill-rule:evenodd;fill:rgb(99.607843%,100%,99.607843%);fill-opacity:1;" d="M 252.179688 130.734375 C 266.71875 130.734375 281.253906 130.734375 295.792969 130.734375 C 295.792969 156.421875 295.792969 182.105469 295.792969 207.792969 C 281.253906 207.792969 266.71875 207.792969 252.179688 207.792969 C 252.179688 182.105469 252.179688 156.421875 252.179688 130.734375 Z M 252.179688 130.734375 "/>
<path style=" stroke:none;fill-rule:evenodd;fill:rgb(99.607843%,99.607843%,99.607843%);fill-opacity:1;" d="M 60.289062 130.734375 C 76.367188 130.566406 92.445312 130.734375 108.515625 131.25 C 119.910156 156.546875 131.367188 181.800781 142.894531 207.019531 C 127.160156 207.363281 111.425781 207.363281 95.691406 207.019531 C 83.675781 181.683594 71.875 156.253906 60.289062 130.734375 Z M 60.289062 130.734375 "/>
<path style=" stroke:none;fill-rule:evenodd;fill:rgb(99.607843%,99.607843%,99.607843%);fill-opacity:1;" d="M 341.96875 130.734375 C 341.035156 132.953125 340.097656 135.175781 339.148438 137.414062 C 338.753906 138.75 338.839844 140.035156 339.40625 141.265625 C 340.261719 141.609375 341.117188 141.609375 341.96875 141.265625 C 343.824219 139.515625 345.363281 137.546875 346.589844 135.359375 C 358.070312 159.042969 369.015625 183.015625 379.425781 207.277344 C 363.6875 207.449219 347.953125 207.277344 332.222656 206.765625 C 320.488281 181.46875 308.6875 156.210938 296.820312 130.992188 C 311.867188 130.734375 326.917969 130.652344 341.96875 130.734375 Z M 341.96875 130.734375 "/>
<path style=" stroke:none;fill-rule:evenodd;fill:rgb(92.54902%,92.54902%,92.156863%);fill-opacity:1;" d="M 344.535156 130.734375 C 345.359375 131.140625 345.703125 131.824219 345.5625 132.792969 C 344.496094 135.085938 343.042969 137.140625 341.199219 138.957031 C 341.753906 136.019531 342.863281 133.28125 344.535156 130.734375 Z M 344.535156 130.734375 "/>
<path style=" stroke:none;fill-rule:evenodd;fill:rgb(99.607843%,99.607843%,99.607843%);fill-opacity:1;" d="M 512.316406 130.734375 C 511.238281 133.066406 510.296875 135.460938 509.492188 137.929688 C 508.511719 140.800781 509.453125 141.914062 512.316406 141.265625 C 513.800781 139.867188 515.171875 138.410156 516.417969 136.902344 C 522.960938 160.214844 529.117188 183.675781 534.890625 207.277344 C 520.011719 207.277344 505.132812 207.277344 490.25 207.277344 C 488.085938 196.824219 485.859375 186.378906 483.582031 175.941406 C 468.359375 175.941406 453.140625 175.941406 437.917969 175.941406 C 435.441406 186.367188 433.046875 196.8125 430.734375 207.277344 C 416.195312 207.277344 401.660156 207.277344 387.121094 207.277344 C 393.539062 181.75 400.039062 156.238281 406.621094 130.734375 C 420.472656 130.734375 434.324219 130.734375 448.179688 130.734375 C 447.441406 134.316406 446.757812 137.914062 446.125 141.523438 C 455.703125 141.523438 465.28125 141.523438 474.859375 141.523438 C 474.121094 137.9375 473.433594 134.34375 472.808594 130.734375 C 485.976562 130.734375 499.144531 130.734375 512.316406 130.734375 Z M 512.316406 130.734375 "/>
<path style=" stroke:none;fill-rule:evenodd;fill:rgb(90.980393%,90.980393%,90.980393%);fill-opacity:1;" d="M 514.367188 131.765625 C 515.230469 132.113281 515.566406 132.800781 515.394531 133.820312 C 514.4375 135.894531 513.15625 137.777344 511.542969 139.46875 C 511.914062 136.734375 512.855469 134.164062 514.367188 131.765625 Z M 514.367188 131.765625 "/>
</g>
</svg>
